<svg width="1079" height="420" viewBox="0 0 1079 420" fill="none" xmlns="http://www.w3.org/2000/svg">
<g clip-path="url(#clip0_131_546)">
<path d="M611.107 280.566L770.12 371.978C807.006 393.287 862.644 395.912 893.796 378C924.947 360.088 975.782 360.088 1006.78 378C1019.32 385.206 1019.33 385.294 1032.51 392.978" stroke="#7E7E7E" stroke-width="0.7" stroke-miterlimit="10" stroke-dasharray="2 3"/>
<path d="M672.991 194.264L566.348 132.667L354.398 256.01C319.398 276.291 303.477 305.136 311.589 333.531C312.188 335.934 314.141 337.887 316.996 339.539C319.699 341.193 323.304 342.244 327.36 342.544C376.328 347.201 426.042 337.887 461.052 317.455L672.991 194.264Z" stroke="#9C9D9E" stroke-width="0.7" stroke-miterlimit="10"/>
<path d="M657.075 194.264L566.488 141.982L362.358 260.667C330.064 279.447 315.194 306.188 322.704 332.479C323.003 333.38 323.755 334.281 324.806 334.882C325.858 335.483 327.36 335.934 329.012 336.085C374.225 340.291 420.633 331.727 452.932 312.948L657.075 194.264Z" stroke="#9C9D9E" stroke-width="0.7" stroke-miterlimit="10"/>
<path d="M641.903 202.377L566.488 158.809L362.36 277.493C338.777 291.015 324.507 309.043 321.354 327.972" stroke="#9C9D9E" stroke-width="0.7" stroke-miterlimit="10"/>
<path d="M566.488 158.658V141.982" stroke="#9C9D9E" stroke-width="0.7" stroke-miterlimit="10"/>
<path d="M356.352 304.236L376.93 316.104L397.51 304.236L376.93 292.368L356.352 304.236Z" stroke="#9C9D9E" stroke-width="0.7" stroke-miterlimit="10"/>
<path d="M376.928 326.32V316.254" stroke="#9C9D9E" stroke-width="0.7" stroke-miterlimit="10"/>
<path d="M356.352 304.236V314.452L376.93 326.321L397.665 314.452V304.236" stroke="#9C9D9E" stroke-width="0.7" stroke-miterlimit="10"/>
<path d="M382.939 307.692C386.243 305.888 386.243 302.734 382.939 300.93C379.633 299.128 374.376 299.128 371.222 300.93C367.918 302.734 367.918 305.888 371.222 307.692C374.376 309.494 379.633 309.494 382.939 307.692Z" stroke="#9C9D9E" stroke-width="0.7" stroke-miterlimit="10"/>
<path d="M579.475 87.9258L579.491 88.2184L579.739 88.3655L641.809 124.265V202.516L608.256 221.884L540.745 182.836V104.584L568.72 88.3652L568.968 88.2187L568.983 87.9279L569.588 77.1111V77.0962V77.0813V76.1798C569.588 75.7126 569.99 75.107 570.843 74.5361C571.788 73.9978 573.028 73.7156 574.283 73.7156C575.539 73.7156 576.748 74 577.616 74.5313C578.468 75.1036 578.871 75.7112 578.871 76.1798V76.1937V76.2075L579.475 87.9258Z" fill="#F5F6F8" stroke="#9C9D9E" stroke-width="0.7"/>
<path d="M540.203 104.274L608.256 143.635L642.352 123.955L574.16 84.5933L540.203 104.274Z" stroke="#9C9D9E" stroke-width="0.7" stroke-miterlimit="10"/>
<path d="M608.256 222.509V143.636" stroke="#9C9D9E" stroke-width="0.7" stroke-miterlimit="10"/>
<path d="M540.203 104.275V183.148L608.256 222.509L642.352 202.828V123.955" stroke="#9C9D9E" stroke-width="0.7" stroke-miterlimit="10"/>
<path d="M549.518 104.274L574.16 90.0021L633.038 123.955L608.256 138.227L549.518 104.274Z" stroke="#9C9D9E" stroke-width="0.7" stroke-miterlimit="10"/>
<path d="M554.183 106.979L574.16 95.411L628.388 126.66" stroke="#9C9D9E" stroke-width="0.7" stroke-miterlimit="10"/>
<path d="M574.16 95.4106V90.0021" stroke="#9C9D9E" stroke-width="0.7" stroke-miterlimit="10"/>
<path d="M602.242 123.654L610.208 128.161L618.314 123.654L610.208 118.997L602.242 123.654Z" stroke="#9C9D9E" stroke-width="0.7" stroke-miterlimit="10"/>
<path d="M610.208 132.217V128.16" stroke="#9C9D9E" stroke-width="0.7" stroke-miterlimit="10"/>
<path d="M602.242 123.655V127.561L610.208 132.218L618.314 127.561V123.655" stroke="#9C9D9E" stroke-width="0.7" stroke-miterlimit="10"/>
<path d="M579.413 76.3313L581.211 108.181C581.211 109.233 580.467 110.284 579.118 111.035C576.406 112.538 572.051 112.538 569.2 111.035C567.851 110.284 567.092 109.233 567.092 108.181L568.905 76.3313" fill="#F5F6F8"/>
<path d="M579.413 76.3313L581.211 108.181C581.211 109.233 580.467 110.284 579.118 111.035C576.406 112.538 572.051 112.538 569.2 111.035C567.851 110.284 567.092 109.233 567.092 108.181L568.905 76.3313" stroke="#9C9D9E" stroke-width="0.7" stroke-miterlimit="10"/>
<path d="M577.911 78.4339C579.864 77.2321 579.864 75.4292 577.911 74.2274C575.958 73.0255 572.657 73.0255 570.55 74.2274C568.457 75.4292 568.597 77.2321 570.55 78.4339C572.502 79.6359 575.819 79.6359 577.911 78.4339Z" stroke="#9C9D9E" stroke-width="0.7" stroke-miterlimit="10"/>
<path d="M575.833 75.5981C576.251 75.8341 576.36 76.093 576.36 76.2561C576.36 76.4191 576.251 76.6781 575.833 76.914C575.414 77.1545 574.81 77.2931 574.159 77.2931C573.508 77.2931 572.888 77.1545 572.47 76.914C572.067 76.6781 571.958 76.4191 571.958 76.2561C571.958 76.093 572.067 75.8341 572.47 75.5981C572.888 75.3576 573.508 75.2191 574.159 75.2191C574.81 75.2191 575.414 75.3576 575.833 75.5981Z" fill="#9C9D9E" stroke="#9C9D9E" stroke-width="0.7"/>
<path d="M546.666 117.646V135.223L557.034 141.232V123.655L546.666 117.646Z" stroke="#9C9D9E" stroke-width="0.7" stroke-miterlimit="10"/>
<path d="M561.389 126.209V143.786L571.757 149.796V132.068L561.389 126.209Z" stroke="#9C9D9E" stroke-width="0.7" stroke-miterlimit="10"/>
<path d="M576.112 134.622V152.199L586.481 158.209V140.631L576.112 134.622Z" stroke="#9C9D9E" stroke-width="0.7" stroke-miterlimit="10"/>
<path d="M590.836 143.185V160.763L601.189 166.772V149.195L590.836 143.185Z" stroke="#9C9D9E" stroke-width="0.7" stroke-miterlimit="10"/>
<path d="M638.601 134.622V152.199L628.388 158.209V140.631L638.601 134.622Z" stroke="#9C9D9E" stroke-width="0.7" stroke-miterlimit="10"/>
<path d="M623.877 143.185V160.763L613.664 166.772V149.195L623.877 143.185Z" stroke="#9C9D9E" stroke-width="0.7" stroke-miterlimit="10"/>
<path d="M638.601 157.607V175.185L628.388 181.194V163.466L638.601 157.607Z" stroke="#9C9D9E" stroke-width="0.7" stroke-miterlimit="10"/>
<path d="M623.877 166.02V183.597L613.664 189.607V172.029L623.877 166.02Z" stroke="#9C9D9E" stroke-width="0.7" stroke-miterlimit="10"/>
<path d="M546.666 140.48V158.057L557.034 164.067V146.489L546.666 140.48Z" stroke="#9C9D9E" stroke-width="0.7" stroke-miterlimit="10"/>
<path d="M561.389 149.043V166.621L571.757 172.631V155.053L561.389 149.043Z" stroke="#9C9D9E" stroke-width="0.7" stroke-miterlimit="10"/>
<path d="M576.112 157.607V175.185L586.481 181.194V163.466L576.112 157.607Z" stroke="#9C9D9E" stroke-width="0.7" stroke-miterlimit="10"/>
<path d="M590.836 166.02V183.597L601.189 189.607V172.029L590.836 166.02Z" stroke="#9C9D9E" stroke-width="0.7" stroke-miterlimit="10"/>
<path d="M347.488 351.86C386.843 356.216 434.753 346.301 461.053 330.977L672.992 207.784" stroke="#0E59C1" stroke-width="0.7" stroke-miterlimit="10"/>
<path d="M311.589 333.531C312.19 335.934 314.141 337.887 316.996 339.539C319.701 341.193 411.785 393.925 529.835 326.019L673.148 242.638V242.037V194.264" stroke="#9C9D9E" stroke-width="0.7" stroke-miterlimit="10"/>
<path d="M580.98 222.5L557.329 236.304L509.812 208.379V181.054L533.152 167.546L580.98 195.027V222.5Z" fill="#F5F6F8" stroke="#9C9D9E" stroke-width="0.7"/>
<path d="M509.268 180.744L557.483 208.987L581.52 194.865L533.15 166.922L509.268 180.744ZM509.268 180.744C509.268 180.592 509.268 180.744 509.268 180.744V180.744Z" stroke="#9C9D9E" stroke-width="0.7" stroke-miterlimit="10"/>
<path d="M581.52 194.715V222.808L557.328 236.931L509.268 208.687V180.744" stroke="#9C9D9E" stroke-width="0.7" stroke-miterlimit="10"/>
<path d="M557.328 208.837V236.931" stroke="#9C9D9E" stroke-width="0.7" stroke-miterlimit="10"/>
<path d="M509.268 185.251L557.328 213.494L581.52 199.372" stroke="#9C9D9E" stroke-width="0.7" stroke-miterlimit="10"/>
<path d="M512.413 187.053V210.639" stroke="#9C9D9E" stroke-width="0.7" stroke-miterlimit="10"/>
<path d="M516.181 189.156V212.742" stroke="#9C9D9E" stroke-width="0.7" stroke-miterlimit="10"/>
<path d="M519.775 191.409V214.845" stroke="#9C9D9E" stroke-width="0.7" stroke-miterlimit="10"/>
<path d="M523.388 193.512V216.949" stroke="#9C9D9E" stroke-width="0.7" stroke-miterlimit="10"/>
<path d="M527.138 195.617V219.053" stroke="#9C9D9E" stroke-width="0.7" stroke-miterlimit="10"/>
<path d="M530.749 197.72V221.306" stroke="#9C9D9E" stroke-width="0.7" stroke-miterlimit="10"/>
<path d="M534.499 199.823V223.409" stroke="#9C9D9E" stroke-width="0.7" stroke-miterlimit="10"/>
<path d="M538.109 202.076V225.512" stroke="#9C9D9E" stroke-width="0.7" stroke-miterlimit="10"/>
<path d="M541.861 204.179V227.615" stroke="#9C9D9E" stroke-width="0.7" stroke-miterlimit="10"/>
<path d="M545.456 206.283V229.87" stroke="#9C9D9E" stroke-width="0.7" stroke-miterlimit="10"/>
<path d="M549.223 208.385V231.971" stroke="#9C9D9E" stroke-width="0.7" stroke-miterlimit="10"/>
<path d="M552.817 210.639V234.076" stroke="#9C9D9E" stroke-width="0.7" stroke-miterlimit="10"/>
<path d="M569.494 206.283V229.72" stroke="#9C9D9E" stroke-width="0.7" stroke-miterlimit="10"/>
<path d="M556.786 236.472L533.291 250.275L485.618 222.35V195.027L508.958 181.519L556.786 209.149V236.472Z" fill="#F5F6F8" stroke="#9C9D9E" stroke-width="0.7"/>
<path d="M485.075 194.715L533.29 222.96L557.328 208.837L508.958 180.893L485.075 194.715Z" stroke="#9C9D9E" stroke-width="0.7" stroke-miterlimit="10"/>
<path d="M557.328 208.837V236.781L533.29 250.904L485.075 222.659V194.716" stroke="#9C9D9E" stroke-width="0.7" stroke-miterlimit="10"/>
<path d="M533.29 222.96V250.902" stroke="#9C9D9E" stroke-width="0.7" stroke-miterlimit="10"/>
<path d="M485.075 199.224L533.29 227.467L557.328 213.345" stroke="#9C9D9E" stroke-width="0.7" stroke-miterlimit="10"/>
<path d="M488.393 201.026V224.612" stroke="#9C9D9E" stroke-width="0.7" stroke-miterlimit="10"/>
<path d="M491.987 203.277V226.714" stroke="#9C9D9E" stroke-width="0.7" stroke-miterlimit="10"/>
<path d="M495.755 205.382V228.818" stroke="#9C9D9E" stroke-width="0.7" stroke-miterlimit="10"/>
<path d="M499.35 207.485V231.071" stroke="#9C9D9E" stroke-width="0.7" stroke-miterlimit="10"/>
<path d="M502.96 209.588V233.176" stroke="#9C9D9E" stroke-width="0.7" stroke-miterlimit="10"/>
<path d="M506.711 211.841V235.277" stroke="#9C9D9E" stroke-width="0.7" stroke-miterlimit="10"/>
<path d="M510.321 213.945V237.382" stroke="#9C9D9E" stroke-width="0.7" stroke-miterlimit="10"/>
<path d="M514.073 216.048V239.485" stroke="#9C9D9E" stroke-width="0.7" stroke-miterlimit="10"/>
<path d="M517.668 218.151V241.739" stroke="#9C9D9E" stroke-width="0.7" stroke-miterlimit="10"/>
<path d="M521.436 220.256V243.842" stroke="#9C9D9E" stroke-width="0.7" stroke-miterlimit="10"/>
<path d="M525.03 222.509V245.946" stroke="#9C9D9E" stroke-width="0.7" stroke-miterlimit="10"/>
<path d="M528.795 224.612V248.049" stroke="#9C9D9E" stroke-width="0.7" stroke-miterlimit="10"/>
<path d="M545.318 220.256V243.693" stroke="#9C9D9E" stroke-width="0.7" stroke-miterlimit="10"/>
<path d="M532.748 250.593L509.268 264.398L461.596 236.471V208.998L484.936 195.49L532.748 223.12V250.593Z" fill="#F5F6F8" stroke="#9C9D9E" stroke-width="0.7"/>
<path d="M461.053 208.686L509.268 236.931L533.29 222.808L484.935 194.865L461.053 208.686Z" stroke="#9C9D9E" stroke-width="0.7" stroke-miterlimit="10"/>
<path d="M533.29 222.808V250.902L509.268 265.025L461.053 236.78V208.686" stroke="#9C9D9E" stroke-width="0.7" stroke-miterlimit="10"/>
<path d="M509.268 236.929V265.025" stroke="#9C9D9E" stroke-width="0.7" stroke-miterlimit="10"/>
<path d="M461.053 213.193L509.268 241.438L533.29 227.316" stroke="#9C9D9E" stroke-width="0.7" stroke-miterlimit="10"/>
<path d="M464.199 215.147V238.583" stroke="#9C9D9E" stroke-width="0.7" stroke-miterlimit="10"/>
<path d="M467.949 217.25V240.686" stroke="#9C9D9E" stroke-width="0.7" stroke-miterlimit="10"/>
<path d="M471.562 219.354V242.941" stroke="#9C9D9E" stroke-width="0.7" stroke-miterlimit="10"/>
<path d="M475.312 221.456V245.042" stroke="#9C9D9E" stroke-width="0.7" stroke-miterlimit="10"/>
<path d="M478.924 223.71V247.147" stroke="#9C9D9E" stroke-width="0.7" stroke-miterlimit="10"/>
<path d="M482.519 225.813V249.25" stroke="#9C9D9E" stroke-width="0.7" stroke-miterlimit="10"/>
<path d="M486.285 227.918V251.504" stroke="#9C9D9E" stroke-width="0.7" stroke-miterlimit="10"/>
<path d="M489.88 230.019V253.606" stroke="#9C9D9E" stroke-width="0.7" stroke-miterlimit="10"/>
<path d="M493.646 232.123V255.709" stroke="#9C9D9E" stroke-width="0.7" stroke-miterlimit="10"/>
<path d="M497.242 234.377V257.814" stroke="#9C9D9E" stroke-width="0.7" stroke-miterlimit="10"/>
<path d="M501.008 236.478V259.915" stroke="#9C9D9E" stroke-width="0.7" stroke-miterlimit="10"/>
<path d="M504.604 238.583V262.17" stroke="#9C9D9E" stroke-width="0.7" stroke-miterlimit="10"/>
<path d="M521.28 234.226V257.814" stroke="#9C9D9E" stroke-width="0.7" stroke-miterlimit="10"/>
<path d="M508.725 264.564L485.075 278.37L437.402 250.444V222.971L460.898 209.461L508.725 237.092V264.564Z" fill="#F5F6F8" stroke="#9C9D9E" stroke-width="0.7"/>
<path d="M436.859 222.81L485.074 251.053L509.112 236.931L460.742 208.989L436.859 222.81ZM436.859 222.81C436.859 222.66 436.859 222.81 436.859 222.81V222.81Z" stroke="#9C9D9E" stroke-width="0.7" stroke-miterlimit="10"/>
<path d="M509.267 236.781V264.875L485.074 278.997L436.859 250.752V222.659" stroke="#9C9D9E" stroke-width="0.7" stroke-miterlimit="10"/>
<path d="M485.075 250.904V278.997" stroke="#9C9D9E" stroke-width="0.7" stroke-miterlimit="10"/>
<path d="M436.859 227.317L485.074 255.561L509.267 241.44" stroke="#9C9D9E" stroke-width="0.7" stroke-miterlimit="10"/>
<path d="M440.161 229.119V252.556" stroke="#9C9D9E" stroke-width="0.7" stroke-miterlimit="10"/>
<path d="M443.772 231.222V254.809" stroke="#9C9D9E" stroke-width="0.7" stroke-miterlimit="10"/>
<path d="M447.523 233.325V256.913" stroke="#9C9D9E" stroke-width="0.7" stroke-miterlimit="10"/>
<path d="M451.134 235.578V259.015" stroke="#9C9D9E" stroke-width="0.7" stroke-miterlimit="10"/>
<path d="M454.886 237.683V261.12" stroke="#9C9D9E" stroke-width="0.7" stroke-miterlimit="10"/>
<path d="M458.496 239.786V263.372" stroke="#9C9D9E" stroke-width="0.7" stroke-miterlimit="10"/>
<path d="M462.106 241.889V265.477" stroke="#9C9D9E" stroke-width="0.7" stroke-miterlimit="10"/>
<path d="M465.857 244.142V267.579" stroke="#9C9D9E" stroke-width="0.7" stroke-miterlimit="10"/>
<path d="M469.452 246.247V269.683" stroke="#9C9D9E" stroke-width="0.7" stroke-miterlimit="10"/>
<path d="M473.22 248.35V271.936" stroke="#9C9D9E" stroke-width="0.7" stroke-miterlimit="10"/>
<path d="M476.814 250.451V274.039" stroke="#9C9D9E" stroke-width="0.7" stroke-miterlimit="10"/>
<path d="M480.581 252.556V276.142" stroke="#9C9D9E" stroke-width="0.7" stroke-miterlimit="10"/>
<path d="M497.103 248.35V271.786" stroke="#9C9D9E" stroke-width="0.7" stroke-miterlimit="10"/>
<path d="M556.786 208.528L533.291 222.331L485.618 194.406V166.933L508.958 153.425L556.786 181.054V208.528Z" fill="#F5F6F8" stroke="#9C9D9E" stroke-width="0.7"/>
<path d="M485.075 166.621L533.29 194.866L557.328 180.744L508.958 152.8L485.075 166.621Z" stroke="#9C9D9E" stroke-width="0.7" stroke-miterlimit="10"/>
<path d="M557.328 180.744V208.837L533.29 222.96L485.075 194.715V166.621" stroke="#9C9D9E" stroke-width="0.7" stroke-miterlimit="10"/>
<path d="M533.29 194.865V222.958" stroke="#9C9D9E" stroke-width="0.7" stroke-miterlimit="10"/>
<path d="M485.075 171.278L533.29 199.372L557.328 185.249" stroke="#9C9D9E" stroke-width="0.7" stroke-miterlimit="10"/>
<path d="M488.393 173.082V196.518" stroke="#9C9D9E" stroke-width="0.7" stroke-miterlimit="10"/>
<path d="M491.987 175.185V198.621" stroke="#9C9D9E" stroke-width="0.7" stroke-miterlimit="10"/>
<path d="M495.755 177.288V200.876" stroke="#9C9D9E" stroke-width="0.7" stroke-miterlimit="10"/>
<path d="M499.35 179.391V202.977" stroke="#9C9D9E" stroke-width="0.7" stroke-miterlimit="10"/>
<path d="M502.96 181.645V205.082" stroke="#9C9D9E" stroke-width="0.7" stroke-miterlimit="10"/>
<path d="M506.711 183.748V207.185" stroke="#9C9D9E" stroke-width="0.7" stroke-miterlimit="10"/>
<path d="M510.321 185.852V209.439" stroke="#9C9D9E" stroke-width="0.7" stroke-miterlimit="10"/>
<path d="M514.073 187.955V211.541" stroke="#9C9D9E" stroke-width="0.7" stroke-miterlimit="10"/>
<path d="M517.668 190.209V213.646" stroke="#9C9D9E" stroke-width="0.7" stroke-miterlimit="10"/>
<path d="M521.436 192.312V215.749" stroke="#9C9D9E" stroke-width="0.7" stroke-miterlimit="10"/>
<path d="M525.03 194.414V218" stroke="#9C9D9E" stroke-width="0.7" stroke-miterlimit="10"/>
<path d="M528.795 196.518V220.105" stroke="#9C9D9E" stroke-width="0.7" stroke-miterlimit="10"/>
<path d="M545.318 192.161V215.749" stroke="#9C9D9E" stroke-width="0.7" stroke-miterlimit="10"/>
<path d="M532.748 222.5L509.268 236.304L461.596 208.377V181.054L484.936 167.546L532.748 195.176V222.5Z" fill="#F5F6F8" stroke="#9C9D9E" stroke-width="0.7"/>
<path d="M461.053 180.744L509.268 208.987L533.29 194.865L484.935 166.922L461.053 180.744Z" stroke="#9C9D9E" stroke-width="0.7" stroke-miterlimit="10"/>
<path d="M533.29 194.865V222.808L509.268 236.931L461.053 208.687V180.744" stroke="#9C9D9E" stroke-width="0.7" stroke-miterlimit="10"/>
<path d="M509.268 208.837V236.931" stroke="#9C9D9E" stroke-width="0.7" stroke-miterlimit="10"/>
<path d="M461.053 185.251L509.268 213.494L533.29 199.372" stroke="#9C9D9E" stroke-width="0.7" stroke-miterlimit="10"/>
<path d="M464.199 187.053V210.639" stroke="#9C9D9E" stroke-width="0.7" stroke-miterlimit="10"/>
<path d="M467.949 189.156V212.742" stroke="#9C9D9E" stroke-width="0.7" stroke-miterlimit="10"/>
<path d="M471.562 191.409V214.845" stroke="#9C9D9E" stroke-width="0.7" stroke-miterlimit="10"/>
<path d="M475.312 193.512V216.949" stroke="#9C9D9E" stroke-width="0.7" stroke-miterlimit="10"/>
<path d="M478.924 195.617V219.053" stroke="#9C9D9E" stroke-width="0.7" stroke-miterlimit="10"/>
<path d="M482.519 197.72V221.306" stroke="#9C9D9E" stroke-width="0.7" stroke-miterlimit="10"/>
<path d="M486.285 199.823V223.409" stroke="#9C9D9E" stroke-width="0.7" stroke-miterlimit="10"/>
<path d="M489.88 202.076V225.512" stroke="#9C9D9E" stroke-width="0.7" stroke-miterlimit="10"/>
<path d="M493.646 204.179V227.615" stroke="#9C9D9E" stroke-width="0.7" stroke-miterlimit="10"/>
<path d="M497.242 206.283V229.87" stroke="#9C9D9E" stroke-width="0.7" stroke-miterlimit="10"/>
<path d="M501.008 208.385V231.971" stroke="#9C9D9E" stroke-width="0.7" stroke-miterlimit="10"/>
<path d="M504.604 210.639V234.076" stroke="#9C9D9E" stroke-width="0.7" stroke-miterlimit="10"/>
<path d="M521.28 206.283V229.72" stroke="#9C9D9E" stroke-width="0.7" stroke-miterlimit="10"/>
<path d="M508.725 236.471L485.075 250.277L437.402 222.35V195.028L460.898 181.519L508.725 209.149V236.471Z" fill="#0E59C1" stroke="#9C9D9E" stroke-width="0.7"/>
<path d="M436.859 194.715L485.074 222.96L509.112 208.837L460.742 180.893L436.859 194.715Z" stroke="#9C9D9E" stroke-width="0.7" stroke-miterlimit="10"/>
<path d="M509.267 208.837V236.781L485.074 250.904L436.859 222.659V194.716" stroke="#9C9D9E" stroke-width="0.7" stroke-miterlimit="10"/>
<path d="M485.075 222.96V250.902" stroke="#9C9D9E" stroke-width="0.7" stroke-miterlimit="10"/>
<path d="M436.859 199.224L485.074 227.467L509.267 213.345" stroke="#9C9D9E" stroke-width="0.7" stroke-miterlimit="10"/>
<path d="M440.161 201.026V224.612" stroke="#9C9D9E" stroke-width="0.7" stroke-miterlimit="10"/>
<path d="M443.772 203.277V226.714" stroke="#9C9D9E" stroke-width="0.7" stroke-miterlimit="10"/>
<path d="M447.523 205.382V228.818" stroke="#9C9D9E" stroke-width="0.7" stroke-miterlimit="10"/>
<path d="M451.134 207.485V231.071" stroke="#9C9D9E" stroke-width="0.7" stroke-miterlimit="10"/>
<path d="M454.886 209.588V233.176" stroke="#9C9D9E" stroke-width="0.7" stroke-miterlimit="10"/>
<path d="M458.496 211.841V235.277" stroke="#9C9D9E" stroke-width="0.7" stroke-miterlimit="10"/>
<path d="M462.106 213.945V237.382" stroke="#9C9D9E" stroke-width="0.7" stroke-miterlimit="10"/>
<path d="M465.857 216.048V239.485" stroke="#9C9D9E" stroke-width="0.7" stroke-miterlimit="10"/>
<path d="M469.452 218.151V241.739" stroke="#9C9D9E" stroke-width="0.7" stroke-miterlimit="10"/>
<path d="M473.22 220.256V243.842" stroke="#9C9D9E" stroke-width="0.7" stroke-miterlimit="10"/>
<path d="M476.814 222.509V245.946" stroke="#9C9D9E" stroke-width="0.7" stroke-miterlimit="10"/>
<path d="M480.581 224.612V248.049" stroke="#9C9D9E" stroke-width="0.7" stroke-miterlimit="10"/>
<path d="M497.103 220.256V243.693" stroke="#9C9D9E" stroke-width="0.7" stroke-miterlimit="10"/>
<path d="M484.532 278.537L461.052 292.342L413.364 264.415V237.092L436.705 223.584L484.532 251.214V278.537Z" fill="#F5F6F8" stroke="#9C9D9E" stroke-width="0.7"/>
<path d="M412.823 236.781L461.054 265.025L485.076 250.902L436.706 222.96L412.823 236.781Z" stroke="#9C9D9E" stroke-width="0.7" stroke-miterlimit="10"/>
<path d="M485.076 250.902V278.846L461.054 292.969L412.823 264.725V236.781" stroke="#9C9D9E" stroke-width="0.7" stroke-miterlimit="10"/>
<path d="M461.053 265.025V292.969" stroke="#9C9D9E" stroke-width="0.7" stroke-miterlimit="10"/>
<path d="M412.823 241.288L461.054 269.532L485.076 255.409" stroke="#9C9D9E" stroke-width="0.7" stroke-miterlimit="10"/>
<path d="M415.984 243.09V266.677" stroke="#9C9D9E" stroke-width="0.7" stroke-miterlimit="10"/>
<path d="M419.734 245.343V268.78" stroke="#9C9D9E" stroke-width="0.7" stroke-miterlimit="10"/>
<path d="M423.346 247.446V270.883" stroke="#9C9D9E" stroke-width="0.7" stroke-miterlimit="10"/>
<path d="M427.096 249.549V272.986" stroke="#9C9D9E" stroke-width="0.7" stroke-miterlimit="10"/>
<path d="M430.708 251.654V275.241" stroke="#9C9D9E" stroke-width="0.7" stroke-miterlimit="10"/>
<path d="M434.458 253.757V277.344" stroke="#9C9D9E" stroke-width="0.7" stroke-miterlimit="10"/>
<path d="M438.068 256.01V279.447" stroke="#9C9D9E" stroke-width="0.7" stroke-miterlimit="10"/>
<path d="M441.665 258.113V281.55" stroke="#9C9D9E" stroke-width="0.7" stroke-miterlimit="10"/>
<path d="M445.43 260.216V283.804" stroke="#9C9D9E" stroke-width="0.7" stroke-miterlimit="10"/>
<path d="M449.026 262.321V285.907" stroke="#9C9D9E" stroke-width="0.7" stroke-miterlimit="10"/>
<path d="M452.792 264.574V288.01" stroke="#9C9D9E" stroke-width="0.7" stroke-miterlimit="10"/>
<path d="M456.389 266.677V290.113" stroke="#9C9D9E" stroke-width="0.7" stroke-miterlimit="10"/>
<path d="M473.064 262.321V285.757" stroke="#9C9D9E" stroke-width="0.7" stroke-miterlimit="10"/>
<path d="M460.51 292.66L436.86 306.464L389.188 278.537V251.066L412.682 237.556L460.51 265.187V292.66Z" fill="#F5F6F8" stroke="#9C9D9E" stroke-width="0.7"/>
<path d="M388.647 250.752L436.861 278.997L460.899 264.875L412.529 236.931L388.647 250.752Z" stroke="#9C9D9E" stroke-width="0.7" stroke-miterlimit="10"/>
<path d="M461.054 264.875V292.969L436.861 307.091L388.647 278.848V250.754" stroke="#9C9D9E" stroke-width="0.7" stroke-miterlimit="10"/>
<path d="M436.859 278.997V307.091" stroke="#9C9D9E" stroke-width="0.7" stroke-miterlimit="10"/>
<path d="M388.647 255.261L436.861 283.505L461.054 269.382" stroke="#9C9D9E" stroke-width="0.7" stroke-miterlimit="10"/>
<path d="M391.951 257.213V280.65" stroke="#9C9D9E" stroke-width="0.7" stroke-miterlimit="10"/>
<path d="M395.558 259.316V282.753" stroke="#9C9D9E" stroke-width="0.7" stroke-miterlimit="10"/>
<path d="M399.308 261.421V285.007" stroke="#9C9D9E" stroke-width="0.7" stroke-miterlimit="10"/>
<path d="M402.918 263.522V287.109" stroke="#9C9D9E" stroke-width="0.7" stroke-miterlimit="10"/>
<path d="M406.67 265.777V289.213" stroke="#9C9D9E" stroke-width="0.7" stroke-miterlimit="10"/>
<path d="M410.28 267.88V291.316" stroke="#9C9D9E" stroke-width="0.7" stroke-miterlimit="10"/>
<path d="M413.877 269.984V293.421" stroke="#9C9D9E" stroke-width="0.7" stroke-miterlimit="10"/>
<path d="M417.643 272.086V295.672" stroke="#9C9D9E" stroke-width="0.7" stroke-miterlimit="10"/>
<path d="M421.238 274.189V297.777" stroke="#9C9D9E" stroke-width="0.7" stroke-miterlimit="10"/>
<path d="M425.004 276.443V299.88" stroke="#9C9D9E" stroke-width="0.7" stroke-miterlimit="10"/>
<path d="M428.599 278.546V301.983" stroke="#9C9D9E" stroke-width="0.7" stroke-miterlimit="10"/>
<path d="M432.366 280.65V304.236" stroke="#9C9D9E" stroke-width="0.7" stroke-miterlimit="10"/>
<path d="M448.887 276.294V299.88" stroke="#9C9D9E" stroke-width="0.7" stroke-miterlimit="10"/>
<path d="M549.921 97.7921L466.586 49.9985C442.084 35.962 402.052 35.962 377.654 49.9985L296.305 96.632C271.795 110.668 231.761 110.668 207.369 96.632L123.218 48.3164L102.179 36.2375" stroke="#7E7E7E" stroke-width="0.7" stroke-miterlimit="10" stroke-dasharray="2 3"/>
<path d="M176.554 179.806C183.208 175.978 183.208 169.714 176.554 165.886C169.903 162.058 158.931 162.058 152.278 165.886C145.626 169.714 145.626 175.978 152.278 179.806C158.931 183.634 169.785 183.634 176.554 179.806Z" stroke="#7E7E7E" stroke-width="0.7" stroke-miterlimit="10" stroke-dasharray="2 3"/>
<path d="M1057.12 407.454C1063.78 403.626 1063.78 397.362 1057.12 393.534C1050.47 389.706 1039.49 389.706 1032.85 393.534C1026.2 397.362 1026.2 403.626 1032.85 407.454C1039.49 411.282 1050.36 411.282 1057.12 407.454Z" stroke="#7E7E7E" stroke-width="0.7" stroke-miterlimit="10" stroke-dasharray="2 3"/>
<path d="M100.886 35.3262C107.539 31.4982 107.539 25.2338 100.886 21.4058C94.2323 17.5776 83.2626 17.5776 76.6092 21.4058C69.9558 25.2338 69.9558 31.4982 76.6092 35.3262C83.2626 39.1544 94.116 39.1544 100.886 35.3262Z" stroke="#7E7E7E" stroke-width="0.7" stroke-miterlimit="10" stroke-dasharray="2 3"/>
<path d="M298.173 95.7043L175.388 165.307" stroke="#7E7E7E" stroke-width="0.7" stroke-miterlimit="10" stroke-dasharray="2 3"/>
</g>
<defs>
<clipPath id="clip0_131_546">
<rect width="1079" height="420" fill="white"/>
</clipPath>
</defs>
</svg>
