<svg width="92" height="68" viewBox="0 0 92 68" fill="none" xmlns="http://www.w3.org/2000/svg">
<path d="M79.3333 17.3333H66.8333V0.666626H0.166656V54.8333H8.49999C8.49999 61.75 14.0833 67.3333 21 67.3333C27.9167 67.3333 33.5 61.75 33.5 54.8333H58.5C58.5 61.75 64.0833 67.3333 71 67.3333C77.9167 67.3333 83.5 61.75 83.5 54.8333H91.8333V34L79.3333 17.3333ZM21 61.0833C17.5417 61.0833 14.75 58.2916 14.75 54.8333C14.75 51.375 17.5417 48.5833 21 48.5833C24.4583 48.5833 27.25 51.375 27.25 54.8333C27.25 58.2916 24.4583 61.0833 21 61.0833ZM58.5 13.1666H50.1667V42.3333H41.8333V13.1666H33.5V42.3333H25.1667V13.1666H16.8333V42.3333H8.49999V8.99996H58.5V13.1666ZM71 61.0833C67.5417 61.0833 64.75 58.2916 64.75 54.8333C64.75 51.375 67.5417 48.5833 71 48.5833C74.4583 48.5833 77.25 51.375 77.25 54.8333C77.25 58.2916 74.4583 61.0833 71 61.0833ZM66.8333 34V23.5833H77.25L85.4166 34H66.8333Z" fill="#0E59C1"/>
</svg>
