<svg width="1198" height="681" viewBox="0 0 1198 681" fill="none" xmlns="http://www.w3.org/2000/svg">
<g clip-path="url(#clip0_103_338)">
<path d="M818.045 239.911C818.045 243.778 820.111 247.351 823.462 249.283L1081.88 398.231C1084.77 399.893 1088.37 397.813 1088.37 394.486L1088.55 174.28C1088.56 170.412 1086.49 166.835 1083.14 164.901L822.929 14.8513C820.759 13.5992 818.045 15.1658 818.045 17.6718V239.911Z" stroke="white" stroke-width="0.7" stroke-miterlimit="10"/>
<path d="M1087.47 170.19L1108.25 158.247" stroke="white" stroke-width="0.7" stroke-miterlimit="10"/>
<path d="M820.116 14.6185L830.34 8.66512L836.249 5.2238C838.918 3.66909 842.215 3.65459 844.898 5.18572L1103.87 152.968C1107.24 154.895 1109.33 158.484 1109.33 162.371L1109.15 381.454C1109.15 383.358 1108.14 385.122 1106.51 386.096L1087.28 397.557" stroke="white" stroke-width="0.7" stroke-miterlimit="10"/>
<path d="M918.42 304.022L879.921 326.24C866.656 333.924 866.563 353.087 879.921 360.771C903.206 374.288 931.872 374.288 955.249 360.864L986.141 343.09" stroke="white" stroke-width="0.7" stroke-miterlimit="10"/>
<path d="M869.903 345.219V381.23V382.435C869.903 389.1 873.243 395.858 879.829 399.746C903.114 413.263 931.78 413.263 955.157 399.839L1019.91 362.53" stroke="white" stroke-width="0.7" stroke-miterlimit="10"/>
<path d="M828.912 237.562L1076.87 380.554L1077.05 175.988L828.912 32.7266V237.562Z" stroke="white" stroke-width="0.7" stroke-miterlimit="10"/>
<path d="M758.905 471.894L693.091 509.776" stroke="white" stroke-width="0.7" stroke-miterlimit="10" stroke-dasharray="2 3"/>
<path d="M881.66 401.133L813.068 440.709" stroke="white" stroke-width="0.7" stroke-miterlimit="10" stroke-dasharray="2 3"/>
<path d="M825.723 595.476L880.813 627.198C897.016 636.515 923.481 636.515 939.606 627.198L993.384 596.245C1009.59 586.929 1036.05 586.929 1052.18 596.245L1089.04 617.673M1198 681L1150.04 653.124" stroke="white" stroke-width="0.7" stroke-miterlimit="10" stroke-dasharray="2 3"/>
<path d="M693.091 519.016L769.321 562.982" stroke="white" stroke-width="0.7" stroke-miterlimit="10" stroke-dasharray="2 3"/>
<path d="M562.528 443.56L677.042 509.777" stroke="white" stroke-width="0.7" stroke-miterlimit="10" stroke-dasharray="2 3"/>
<path d="M439.863 373.104L546.367 434.708" stroke="white" stroke-width="0.7" stroke-miterlimit="10" stroke-dasharray="2 3"/>
<path d="M234.857 352.316L289.87 320.593C306.073 311.276 332.538 311.276 348.663 320.593L423.814 363.866" stroke="white" stroke-width="0.7" stroke-miterlimit="10" stroke-dasharray="2 3"/>
<path d="M94.2016 433.394L178.611 384.732" stroke="#B8B8B8" stroke-width="0.7" stroke-miterlimit="10" stroke-dasharray="2 3"/>
<path d="M544.564 303.576L571.337 288.177C587.54 278.86 587.54 263.614 571.337 254.298L517.559 223.344C501.357 214.028 500.816 199.09 516.324 190.236C531.833 181.304 544.487 173.989 544.487 173.989" stroke="white" stroke-width="0.7" stroke-miterlimit="10" stroke-dasharray="2 3"/>
<path d="M439.863 363.865L488.395 335.915" stroke="white" stroke-width="0.7" stroke-miterlimit="10" stroke-dasharray="2 3"/>
<path d="M532.835 157.742C532.835 163.594 536.692 169.524 544.409 173.989C559.916 182.921 585.224 182.921 600.655 173.989C608.68 169.369 612.538 163.209 612.229 157.05" stroke="white" stroke-width="0.7" stroke-miterlimit="10"/>
<path d="M544.409 123.401C528.9 132.333 528.9 146.885 544.409 155.818C559.918 164.75 585.226 164.75 600.656 155.818C616.088 146.885 616.165 132.333 600.656 123.401C585.148 114.47 559.841 114.547 544.409 123.401Z" stroke="white" stroke-width="0.7" stroke-miterlimit="10"/>
<path d="M532.835 139.648V157.743" stroke="white" stroke-width="0.7" stroke-miterlimit="10"/>
<path d="M612.229 157.05V138.955" stroke="white" stroke-width="0.7" stroke-miterlimit="10"/>
<path d="M24.3746 450.641C24.3746 456.493 28.2324 462.421 35.9481 466.888C51.4566 475.819 76.7639 475.819 92.1952 466.888C100.219 462.268 104.077 456.108 103.769 449.949" stroke="white" stroke-width="0.7" stroke-miterlimit="10"/>
<path d="M36.0229 416.378C20.5144 425.309 20.5144 439.862 36.0229 448.793C51.5314 457.725 76.8388 457.725 92.27 448.793C107.779 439.862 107.779 425.309 92.27 416.378C76.7616 407.446 51.4542 407.446 36.0229 416.378Z" fill="#043375"/>
<path d="M36.0229 416.378C20.5144 425.309 20.5144 439.862 36.0229 448.793C51.5314 457.725 76.8388 457.725 92.27 448.793C107.779 439.862 107.779 425.309 92.27 416.378C76.7616 407.446 51.4542 407.446 36.0229 416.378Z" stroke="white" stroke-width="0.7" stroke-miterlimit="10"/>
<path d="M24.3746 432.547V450.641" stroke="white" stroke-width="0.7" stroke-miterlimit="10"/>
<path d="M103.846 449.949V431.854" stroke="white" stroke-width="0.7" stroke-miterlimit="10"/>
<path d="M499.555 600.682L416.381 552.789C400.177 543.473 400.177 528.226 416.381 518.91L443.231 503.433L499.941 470.787L547.469 443.375" stroke="white" stroke-width="0.7" stroke-miterlimit="10" stroke-dasharray="2 3"/>
<path d="M448.427 595.245C448.427 601.098 452.285 607.026 460.001 611.492C475.51 620.423 500.817 620.423 516.248 611.492C524.272 606.872 528.13 600.712 527.821 594.552" stroke="white" stroke-width="0.7" stroke-miterlimit="10"/>
<path d="M460.001 560.98C444.494 569.912 444.494 584.465 460.001 593.396C475.51 602.328 500.818 602.328 516.248 593.396C531.757 584.465 531.757 569.912 516.248 560.98C500.74 552.049 475.433 552.049 460.001 560.98Z" stroke="white" stroke-width="0.7" stroke-miterlimit="10"/>
<path d="M448.427 577.227V595.244" stroke="white" stroke-width="0.7" stroke-miterlimit="10"/>
<path d="M527.821 594.552V576.534" stroke="white" stroke-width="0.7" stroke-miterlimit="10"/>
<path d="M423.814 363.865C419.415 366.406 419.415 370.564 423.814 373.105C428.211 375.646 435.463 375.646 439.861 373.105C444.26 370.564 444.26 366.406 439.861 363.865C435.463 361.325 428.211 361.325 423.814 363.865Z" stroke="#B8B8B8" stroke-width="0.7" stroke-miterlimit="10" stroke-dasharray="2 3"/>
<path d="M234.857 254.991L353.832 323.518" stroke="white" stroke-width="0.7" stroke-miterlimit="10" stroke-dasharray="2 3"/>
<path d="M218.346 246.135C213.948 248.676 213.948 252.835 218.346 255.376C222.744 257.917 229.996 257.917 234.395 255.376C238.793 252.835 238.793 248.676 234.395 246.135C229.996 243.594 222.744 243.594 218.346 246.135Z" stroke="white" stroke-width="0.7" stroke-miterlimit="10" stroke-dasharray="2 3"/>
<path d="M546.774 433.905C542.377 436.445 542.377 440.603 546.774 443.144C551.173 445.685 558.425 445.685 562.823 443.144C567.22 440.603 567.22 436.445 562.823 433.905C558.425 431.364 551.173 431.364 546.774 433.905Z" stroke="#B8B8B8" stroke-width="0.7" stroke-miterlimit="10" stroke-dasharray="2 3"/>
<path d="M639.515 380.238C635.118 382.779 635.118 386.937 639.515 389.478C643.914 392.018 651.166 392.018 655.564 389.478C659.963 386.937 659.963 382.779 655.564 380.238C651.166 377.697 643.914 377.697 639.515 380.238Z" stroke="white" stroke-width="0.7" stroke-miterlimit="10" stroke-dasharray="2 3"/>
<path d="M677.042 509.777C672.645 512.318 672.645 516.476 677.042 519.017C681.44 521.557 688.693 521.557 693.091 519.017C697.489 516.476 697.489 512.318 693.091 509.777C688.693 507.236 681.44 507.236 677.042 509.777Z" stroke="white" stroke-width="0.7" stroke-miterlimit="10" stroke-dasharray="2 3"/>
<path d="M562.823 433.905L640.288 389.939" stroke="white" stroke-width="0.7" stroke-miterlimit="10" stroke-dasharray="2 3"/>
<path d="M1072.62 541.038C1068.23 543.579 1068.23 547.736 1072.62 550.277C1077.02 552.818 1084.27 552.818 1088.68 550.277C1093.07 547.736 1093.07 543.579 1088.68 541.038C1084.27 538.497 1077.02 538.497 1072.62 541.038Z" stroke="white" stroke-width="0.7" stroke-miterlimit="10" stroke-dasharray="2 3"/>
<path d="M992.149 596.861L1073.39 550.662" stroke="white" stroke-width="0.7" stroke-miterlimit="10" stroke-dasharray="2 3"/>
<path d="M423.892 373.029L379.989 397.976C361.549 408.448 331.381 425.619 312.94 436.013L295.348 446.023C276.908 456.494 274.747 472.51 290.564 481.596C306.381 490.682 304.298 506.851 285.935 517.4L177.453 579.922" stroke="white" stroke-width="0.7" stroke-miterlimit="10" stroke-dasharray="2 3"/>
<path d="M776.266 445.483L785.525 440.171L807.824 443.636L813.687 456.493L804.429 461.806L798.565 448.948L776.266 445.483Z" stroke="#0E59C1" stroke-width="0.7" stroke-miterlimit="10"/>
<path d="M760.374 454.722L769.632 449.41L791.93 452.875L797.793 465.733L788.535 471.046L782.671 458.187L760.374 454.722Z" stroke="#0E59C1" stroke-width="0.7" stroke-miterlimit="10"/>
<path d="M744.478 463.886L753.736 458.573L776.035 462.037L781.899 474.896L772.64 480.209L766.776 467.351L744.478 463.886Z" stroke="#0E59C1" stroke-width="0.7" stroke-miterlimit="10"/>
<path d="M197.436 357.629L206.694 352.316L228.993 355.781L234.857 368.639L225.599 373.952L219.735 361.094L197.436 357.629Z" stroke="#0E59C1" stroke-width="0.7" stroke-miterlimit="10"/>
<path d="M181.541 366.868L190.799 361.555L213.097 365.02L218.962 377.878L209.703 383.192L203.839 370.333L181.541 366.868Z" stroke="#0E59C1" stroke-width="0.7" stroke-miterlimit="10"/>
<path d="M165.647 376.032L174.906 370.718L197.204 374.183L203.068 387.042L193.81 392.355L187.946 379.497L165.647 376.032Z" stroke="#0E59C1" stroke-width="0.7" stroke-miterlimit="10"/>
<path d="M527.28 329.756L518.022 335.068L495.723 331.604L489.859 318.746L499.119 313.432L504.983 326.291L527.28 329.756Z" stroke="#0E59C1" stroke-width="0.7" stroke-miterlimit="10"/>
<path d="M543.174 320.515L533.915 325.828L511.617 322.363L505.753 309.505L515.012 304.191L520.875 317.05L543.174 320.515Z" stroke="#0E59C1" stroke-width="0.7" stroke-miterlimit="10"/>
<path d="M559.069 311.276L549.811 316.589L527.512 313.124L521.648 300.266L530.908 294.952L536.771 307.811L559.069 311.276Z" stroke="#0E59C1" stroke-width="0.7" stroke-miterlimit="10"/>
<path d="M807.358 568.295L785.137 571.76L779.273 584.619L770.015 579.306L775.879 566.447L798.176 562.982L807.358 568.295Z" stroke="#0E59C1" stroke-width="0.7" stroke-miterlimit="10"/>
<path d="M823.253 577.534L800.954 580.999L795.09 593.858L785.832 588.546L791.696 575.687L813.994 572.222L823.253 577.534Z" stroke="#0E59C1" stroke-width="0.7" stroke-miterlimit="10"/>
<path d="M839.146 586.698L816.848 590.163L810.984 603.022L801.725 597.708L807.589 584.85L829.887 581.385L839.146 586.698Z" stroke="#0E59C1" stroke-width="0.7" stroke-miterlimit="10"/>
<path d="M1130.03 624.349L1107.82 627.814L1101.95 640.672L1092.69 635.359L1098.56 622.5L1120.86 619.035L1130.03 624.349Z" stroke="#0E59C1" stroke-width="0.7" stroke-miterlimit="10"/>
<path d="M1145.93 633.588L1123.64 637.053L1117.77 649.911L1108.51 644.599L1114.38 631.74L1136.68 628.275L1145.93 633.588Z" stroke="#0E59C1" stroke-width="0.7" stroke-miterlimit="10"/>
<path d="M1161.83 642.751L1139.52 646.216L1133.66 659.075L1124.41 653.762L1130.27 640.903L1152.56 637.438L1161.83 642.751Z" stroke="#0E59C1" stroke-width="0.7" stroke-miterlimit="10"/>
<path d="M538.047 160.976L612.395 117.724V3.77039C612.395 3.77039 612.395 3.77039 612.311 3.77039L537.964 48.1041L538.047 160.976Z" stroke="white" stroke-width="0.7" stroke-miterlimit="10"/>
<path d="M537.881 160.893L532.546 157.732L532.463 157.65V45.0268C532.463 44.9436 532.546 44.8604 532.629 44.9436L537.964 48.1043L538.047 48.1875V160.893C538.047 160.893 537.964 160.893 537.881 160.893Z" stroke="white" stroke-width="0.7" stroke-miterlimit="10"/>
<path d="M537.962 48.0214L532.545 44.8606C532.461 44.8606 532.461 44.7774 532.545 44.6943L606.809 0.443726H606.892L612.309 3.60454C612.393 3.60454 612.393 3.68773 612.309 3.77081L537.962 48.0214ZM537.962 48.0214C538.045 48.0214 538.045 48.0214 537.962 48.0214V48.0214Z" stroke="white" stroke-width="0.7" stroke-miterlimit="10"/>
<path d="M553.551 93.2502L549.437 90.9133L549.356 90.8327L549.275 62.6251C549.275 62.5445 549.356 62.4639 549.437 62.5445L553.551 64.8816L553.632 64.9622L553.713 93.1702C553.713 93.2502 553.632 93.2502 553.551 93.2502Z" stroke="white" stroke-width="0.7" stroke-miterlimit="10"/>
<path d="M554.01 65.1004L634.011 18.9536L634.089 46.5302L554.089 92.6769L554.01 65.1004Z" stroke="white" stroke-width="0.7"/>
<path d="M553.551 64.8814L549.437 62.5442C549.357 62.5442 549.357 62.383 549.437 62.383L629.952 15.9612H630.032L634.147 18.2984C634.227 18.2984 634.227 18.4596 634.147 18.4596L553.714 64.8814C553.633 64.8814 553.633 64.8814 553.551 64.8814Z" stroke="white" stroke-width="0.7" stroke-miterlimit="10"/>
<path d="M634.387 18.541L634.468 46.7487C634.468 46.7487 634.468 46.8293 634.387 46.8293L553.874 93.2514C553.793 93.2514 553.712 93.2514 553.712 93.1702L553.632 64.9627C553.632 64.9627 553.632 64.8821 553.712 64.8821L634.226 18.4604C634.307 18.3798 634.387 18.4604 634.387 18.541Z" stroke="white" stroke-width="0.7" stroke-miterlimit="10"/>
<path d="M566.539 62.7866C562.263 65.2045 558.875 71.1684 558.875 76.0846C558.875 81.0008 562.344 82.935 566.62 80.4366C570.895 78.0188 574.285 72.0549 574.285 67.1387C574.285 62.2225 570.815 60.2883 566.539 62.7866Z" fill="white"/>
<path d="M566.539 62.7866C562.263 65.2045 558.875 71.1684 558.875 76.0846C558.875 81.0008 562.344 82.935 566.62 80.4366C570.895 78.0188 574.285 72.0549 574.285 67.1387C574.285 62.2225 570.815 60.2883 566.539 62.7866Z" fill="white"/>
<path d="M605.021 43.8474L580.496 58.0318" stroke="white" stroke-miterlimit="10"/>
<path d="M629.143 35.224L580.496 63.2704" stroke="white" stroke-miterlimit="10"/>
<path d="M629.143 40.4628L606.071 53.7606" stroke="white" stroke-miterlimit="10"/>
<path d="M603.977 77.6326L548.05 109.822" stroke="white" stroke-width="0.7" stroke-miterlimit="10"/>
<path d="M598.392 109.156L555.468 133.944" stroke="white" stroke-width="0.7" stroke-miterlimit="10"/>
<path d="M604.062 96.4307L567.221 117.724" stroke="white" stroke-width="0.7" stroke-miterlimit="10"/>
<path d="M586.307 97.2625L548.132 119.305" stroke="white" stroke-width="0.7" stroke-miterlimit="10"/>
<path d="M121.691 319.877L114.803 316.296C113.297 315.652 111.287 315.867 109.135 317.155L8.682 375.513C3.94632 378.305 0 385.036 0 390.55V454.923C0 457.572 0.932778 459.505 2.43957 460.436L9.32779 464.016L121.691 319.877Z" fill="#043375"/>
<path d="M121.691 319.877L114.803 316.296C113.297 315.652 111.287 315.867 109.135 317.155L8.682 375.513C3.94632 378.305 0 385.036 0 390.55V454.923C0 457.572 0.932778 459.505 2.43957 460.436L9.32779 464.016L121.691 319.877Z" stroke="white" stroke-width="0.7" stroke-miterlimit="10"/>
<path d="M7.1033 458.645C7.1033 464.159 11.0497 466.379 15.7853 463.658L116.166 405.873C120.974 403.152 124.848 396.349 124.848 390.836V325.819C124.848 320.306 120.974 318.086 116.166 320.879L15.7853 379.236C11.0497 382.029 7.1033 388.76 7.1033 394.274V458.645Z" fill="#043375"/>
<path d="M7.1033 458.645C7.1033 464.159 11.0497 466.379 15.7853 463.658L116.166 405.873C120.974 403.152 124.848 396.349 124.848 390.836V325.819C124.848 320.306 120.974 318.086 116.166 320.879L15.7853 379.236C11.0497 382.029 7.1033 388.76 7.1033 394.274V458.645Z" stroke="white" stroke-width="0.7" stroke-miterlimit="10"/>
<path d="M32.5389 386.787C28.2635 389.204 24.8755 395.168 24.8755 400.085C24.8755 405.001 28.3436 406.935 32.62 404.437C36.8954 402.019 40.2845 396.055 40.2845 391.139C40.2845 386.222 36.8153 384.288 32.5389 386.787Z" fill="white"/>
<path d="M115.162 344.652L58.4775 377.231" stroke="white" stroke-width="0.7" stroke-miterlimit="10"/>
<path d="M62.7106 424.061L21.0227 448.12" stroke="white" stroke-width="0.7" stroke-miterlimit="10"/>
<path d="M90.7664 368.352L61.5633 385.179" stroke="white" stroke-width="0.7" stroke-miterlimit="10"/>
<path d="M21.7418 431.15L20.8808 431.651L20.9525 433.297L19.7327 433.083L19.2305 434.228H20.5937L19.3022 435.804L19.7327 436.377L20.9525 434.729L20.8808 436.52L21.7418 436.019L21.6701 434.3L22.9616 434.515L23.3921 433.441L22.0288 433.37L23.3921 431.866L22.9616 431.221L21.6701 432.868L21.7418 431.15Z" fill="white"/>
<path d="M27.1945 428L26.3335 428.501L26.4052 430.147L25.1138 430.004L24.6832 431.078H26.0465L24.7549 432.654L25.1855 433.227L26.4052 431.579L26.3335 433.37L27.1945 432.869L27.1228 431.221L28.4144 431.365L28.8448 430.291H27.4816L28.8448 428.716L28.4144 428.071L27.1228 429.718L27.1945 428Z" fill="white"/>
<path d="M32.6472 424.849L31.7862 425.349L31.858 426.996L30.5664 426.853L30.1359 427.927H31.4993L30.1359 429.502L30.6382 430.147L31.858 428.499L31.7862 430.218L32.6472 429.718L32.5755 428.07L33.867 428.214L34.2976 427.14H32.9342L34.2976 425.564L33.867 424.991L32.5755 426.638L32.6472 424.849Z" fill="white"/>
<path d="M38.1001 421.697L37.2391 422.199L37.3108 423.917L36.0192 423.703L35.5887 424.777L36.952 424.848L35.5887 426.352L36.0909 426.997L37.3108 425.349L37.2391 427.068L38.1001 426.566L38.0282 424.92L39.3198 425.135L39.7504 423.99H38.387L39.7504 422.413L39.3198 421.841L38.0282 423.488L38.1001 421.697Z" fill="white"/>
<path d="M46.5667 416.828L45.7057 417.33L45.7774 418.977L44.5576 418.834L44.1271 419.908H45.4186L44.1271 421.483L44.5576 422.055L45.7774 420.409L45.7057 422.199L46.6384 421.697L46.4949 420.051L47.7864 420.194L48.2169 419.12H46.9254L48.2169 417.544L47.7864 416.972L46.4949 418.547L46.5667 416.828Z" fill="white"/>
<path d="M52.0194 413.678L51.1583 414.18L51.2301 415.827L50.0103 415.684L49.5798 416.758H50.8714L49.5798 418.333L50.0103 418.978L51.2301 417.33L51.1583 419.049L52.0194 418.547L51.9476 416.901L53.2392 417.044L53.6697 415.969H52.3064L53.6697 414.394L53.2392 413.822L51.9476 415.469L52.0194 413.678Z" fill="white"/>
<path d="M57.4722 410.527L56.6112 411.029L56.6829 412.747L55.4632 412.533L55.0326 413.606L56.3242 413.678L55.0326 415.182L55.4632 415.825L56.6829 414.179L56.6112 415.898L57.4722 415.396L57.4004 413.75L58.6919 413.964L59.1225 412.818H57.7592L59.1225 411.243L58.6919 410.671L57.4004 412.317L57.4722 410.527Z" fill="white"/>
<path d="M62.927 407.377L62.066 407.878L62.1378 409.597L60.918 409.381L60.4875 410.528H61.779L60.4875 412.032L60.918 412.675L62.1378 411.029L62.066 412.748L62.927 412.246L62.8553 410.6L64.1468 410.814L64.5773 409.668H63.214L64.5773 408.093L64.1468 407.521L62.8553 409.167L62.927 407.377Z" fill="white"/>
<path d="M71.3935 402.508L70.5325 403.009L70.6043 404.656L69.3845 404.512L68.9539 405.587H70.2455L68.9539 407.163L69.3845 407.806L70.6043 406.16L70.5325 407.879L71.4653 407.377L71.3935 405.73L72.6134 405.873L73.0438 404.799H71.7524L73.0438 403.224L72.6134 402.652L71.3935 404.298V402.508Z" fill="white"/>
<path d="M76.8463 399.357L75.9853 399.858L76.0571 401.576L74.8373 401.361L74.4068 402.435L75.6984 402.508L74.4068 404.012L74.8373 404.655L76.0571 403.009L75.9853 404.728L76.9181 404.226L76.8463 402.579L78.0661 402.793L78.4967 401.648H77.2051L78.4967 400.073L78.0661 399.499L76.8463 401.147V399.357Z" fill="white"/>
<path d="M82.299 396.207L81.438 396.779L81.5099 398.426L80.29 398.211L79.8596 399.357H81.151L79.8596 400.86L80.29 401.505L81.5099 399.859L81.438 401.576L82.3709 401.076L82.299 399.429L83.5189 399.643L83.9493 398.498H82.6579L83.9493 396.923L83.5189 396.349L82.2273 397.997L82.299 396.207Z" fill="white"/>
<path d="M87.7518 393.128L86.8908 393.63L86.9626 395.276L85.7428 395.061L85.3123 396.208H86.6038L85.3123 397.711L85.7428 398.355L86.9626 396.709L86.8908 398.426L87.8236 397.926L87.7518 396.279L88.9716 396.493L89.4021 395.348H88.1106L89.4021 393.844L88.9716 393.199L87.6801 394.847L87.7518 393.128Z" fill="white"/>
<path d="M96.2901 388.188L95.3573 388.688L95.5009 390.407L94.2093 390.192L93.7787 391.266L95.0703 391.338L93.7787 392.841L94.2093 393.486L95.5009 391.84L95.4291 393.557L96.2901 393.057L96.2183 391.41L97.4382 391.624L97.8686 390.479H96.5772L97.8686 388.904L97.4382 388.33L96.2183 389.978L96.2901 388.188Z" fill="white"/>
<path d="M101.745 385.036L100.812 385.609L100.955 387.256L99.6642 387.041L99.2337 388.186H100.597L99.2337 389.69L99.6642 390.335L100.955 388.688L100.884 390.406L101.745 389.905L101.674 388.258L102.893 388.473L103.324 387.327H102.032L103.324 385.752L102.893 385.179L101.674 386.827L101.745 385.036Z" fill="white"/>
<path d="M107.198 381.958L106.265 382.458L106.409 384.106L105.117 383.891L104.686 385.036H106.05L104.686 386.54L105.117 387.185L106.409 385.538L106.336 387.256L107.198 386.755L107.126 385.109L108.346 385.323L108.777 384.177H107.485L108.777 382.674L108.346 382.029L107.126 383.676L107.198 381.958Z" fill="white"/>
<path d="M112.651 378.807L111.718 379.308L111.789 380.956L110.57 380.74L110.139 381.886H111.431L110.139 383.461L110.57 384.034L111.862 382.388L111.789 384.177L112.651 383.676L112.579 381.957L113.799 382.173L114.229 381.027H112.937L114.229 379.523L113.799 378.879L112.579 380.526L112.651 378.807Z" fill="white"/>
<path d="M489.938 506.62L375.669 565.524V572.531L451.823 616.343L565.551 550.432V543.502L489.938 506.62Z" fill="#043375"/>
<path d="M375.669 572.53L451.746 616.42H451.823L565.551 550.51" stroke="white" stroke-width="0.7" stroke-miterlimit="10"/>
<path d="M375.824 565.6L451.823 609.412H451.899L565.474 543.579C565.551 543.579 565.629 543.579 565.629 543.657V550.432C565.629 550.432 565.629 550.509 565.551 550.509L451.823 616.342H451.746L375.746 572.53L375.669 572.453V565.677C375.669 565.6 375.746 565.6 375.824 565.6Z" stroke="white" stroke-width="0.7" stroke-miterlimit="10"/>
<path d="M451.822 609.412V616.342" stroke="white" stroke-width="0.7" stroke-miterlimit="10"/>
<path d="M489.859 499.459L375.822 565.524C375.745 565.524 375.745 565.6 375.822 565.677L451.821 609.489H451.898L565.473 543.656C565.55 543.656 565.55 543.579 565.473 543.502L489.936 499.536C489.936 499.459 489.859 499.459 489.859 499.459Z" stroke="white" stroke-width="0.7" stroke-miterlimit="10"/>
<path d="M478.056 516.937L489.089 510.546L500.2 516.937L489.167 523.328L478.056 516.937Z" stroke="white" stroke-width="0.7" stroke-miterlimit="10"/>
<path d="M538.083 544.271L505.06 525.253" stroke="white" stroke-width="0.7" stroke-miterlimit="10"/>
<path d="M515.707 538.265L499.119 528.718" stroke="white" stroke-width="0.7" stroke-miterlimit="10"/>
<path d="M458.691 528.179L469.724 521.788L480.835 528.179L469.801 534.569L458.691 528.179Z" stroke="white" stroke-width="0.7" stroke-miterlimit="10"/>
<path d="M518.717 555.513L485.694 536.495" stroke="white" stroke-width="0.7" stroke-miterlimit="10"/>
<path d="M512.776 558.978L496.187 549.43" stroke="white" stroke-width="0.7" stroke-miterlimit="10"/>
<path d="M439.322 539.42L450.355 533.029L461.466 539.42L450.433 545.812L439.322 539.42Z" stroke="white" stroke-width="0.7" stroke-miterlimit="10"/>
<path d="M499.351 566.755L466.328 547.736" stroke="white" stroke-width="0.7" stroke-miterlimit="10"/>
<path d="M442.718 586.158C438.012 583.464 438.012 579.075 442.641 576.303C447.348 573.608 454.909 573.608 459.616 576.303C464.322 578.998 464.322 583.387 459.693 586.158C455.063 588.854 447.425 588.854 442.718 586.158Z" stroke="white" stroke-width="0.7" stroke-miterlimit="10"/>
<path d="M439.244 479.362L448.349 474.126C454.29 470.738 462.391 471.355 471.265 476.667C489.088 487.447 503.902 512.318 503.824 532.953C503.824 543.271 500.121 550.509 494.18 553.897L484.689 559.363" fill="#043375"/>
<path d="M439.244 479.362L448.349 474.126C454.29 470.738 462.391 471.355 471.265 476.667C489.088 487.447 503.902 512.318 503.824 532.953C503.824 543.271 500.121 550.509 494.18 553.897L484.689 559.363" stroke="white" stroke-width="0.7" stroke-miterlimit="10"/>
<path d="M461.388 557.207C443.334 546.812 428.674 521.479 428.751 500.845C428.828 480.132 443.565 471.739 461.62 482.133C479.675 492.529 494.334 517.861 494.257 538.497C494.18 559.209 479.443 567.602 461.388 557.207Z" fill="#043375" stroke="white" stroke-width="0.7" stroke-miterlimit="10"/>
<path d="M475.895 514.935L455.911 526.253L447.115 511.085L443.875 513.01L455.911 533.877L479.213 520.633L475.895 514.935Z" fill="white"/>
<path d="M177.067 589.008C181.464 586.467 181.464 582.308 177.067 579.767C172.669 577.227 165.416 577.227 161.018 579.767C156.62 582.308 156.62 586.467 161.018 589.008C165.494 591.549 172.669 591.549 177.067 589.008Z" stroke="white" stroke-width="0.7" stroke-miterlimit="10" stroke-dasharray="2 3"/>
</g>
<defs>
<clipPath id="clip0_103_338">
<rect width="1198" height="681" fill="white"/>
</clipPath>
</defs>
</svg>
