<svg width="1392" height="262" viewBox="0 0 1392 262" fill="none" xmlns="http://www.w3.org/2000/svg">
<path d="M514.558 142.366L549.938 162.594" stroke="#7E7E7E" stroke-width="0.7" stroke-miterlimit="10" stroke-dasharray="2 3"/>
<path d="M443.216 102.007C420.692 92.4705 391.112 92.1815 373.616 102.103C353.992 113.18 319.096 111.446 296.089 98.2501L236.011 63.7661L205.972 46.5242" stroke="#7E7E7E" stroke-width="0.7" stroke-miterlimit="10" stroke-dasharray="2 3"/>
<path d="M267.38 81.7791L136.88 156.815" stroke="#7E7E7E" stroke-width="0.7" stroke-miterlimit="10" stroke-dasharray="2 3"/>
<path d="M466.997 135.046L494.933 130.711L502.28 114.625L513.88 121.271L506.533 137.357L478.597 141.692L466.997 135.046Z" stroke="#0E59C1" stroke-width="0.7" stroke-miterlimit="10"/>
<path d="M447.083 123.487L475.02 119.152L482.367 103.066L493.967 109.712L486.62 125.799L458.683 130.133L447.083 123.487Z" stroke="#0E59C1" stroke-width="0.7" stroke-miterlimit="10"/>
<path d="M427.17 112.024L455.107 107.69L462.453 91.6033L474.053 98.25L466.707 114.336L438.77 118.671L427.17 112.024Z" stroke="#0E59C1" stroke-width="0.7" stroke-miterlimit="10"/>
<path d="M1100.16 175.02L1199.34 232.043C1222.35 245.336 1257.05 246.973 1276.48 235.8C1295.91 224.626 1327.62 224.626 1346.95 235.8C1354.77 240.295 1354.78 240.35 1363 245.143" stroke="#7E7E7E" stroke-width="0.7" stroke-miterlimit="10" stroke-dasharray="2 3"/>
<path d="M1138.76 121.184L1072.25 82.7593L940.048 159.702C918.217 172.353 908.287 190.347 913.346 208.06C913.72 209.559 914.938 210.777 916.719 211.808C918.405 212.839 920.653 213.495 923.183 213.682C953.726 216.587 984.734 210.777 1006.57 198.032L1138.76 121.184Z" stroke="#9C9D9E" stroke-width="0.7" stroke-miterlimit="10"/>
<path d="M1128.83 121.184L1072.33 88.5696L945.012 162.607C924.87 174.321 915.595 191.003 920.279 207.404C920.466 207.965 920.935 208.528 921.59 208.903C922.246 209.277 923.183 209.558 924.214 209.653C952.414 212.277 981.36 206.935 1001.51 195.22L1128.83 121.184Z" stroke="#9C9D9E" stroke-width="0.7" stroke-miterlimit="10"/>
<path d="M1119.37 126.245L1072.33 99.0669L945.013 173.103C930.304 181.538 921.403 192.784 919.436 204.592" stroke="#9C9D9E" stroke-width="0.7" stroke-miterlimit="10"/>
<path d="M1072.33 98.9723V88.5696" stroke="#9C9D9E" stroke-width="0.7" stroke-miterlimit="10"/>
<path d="M941.266 189.785L954.101 197.189L966.937 189.785L954.101 182.382L941.266 189.785Z" stroke="#9C9D9E" stroke-width="0.7" stroke-miterlimit="10"/>
<path d="M954.1 203.562V197.282" stroke="#9C9D9E" stroke-width="0.7" stroke-miterlimit="10"/>
<path d="M941.266 189.785V196.158L954.101 203.562L967.034 196.158V189.785" stroke="#9C9D9E" stroke-width="0.7" stroke-miterlimit="10"/>
<path d="M957.849 191.941C959.91 190.816 959.91 188.848 957.849 187.723C955.787 186.599 952.508 186.599 950.541 187.723C948.48 188.848 948.48 190.816 950.541 191.941C952.508 193.065 955.787 193.065 957.849 191.941Z" stroke="#9C9D9E" stroke-width="0.7" stroke-miterlimit="10"/>
<path d="M1080.43 54.8488L1080.44 55.0314L1080.6 55.1232L1119.31 77.5179V126.331L1098.38 138.413L1056.28 114.055V65.2407L1073.72 55.123L1073.88 55.0316L1073.89 54.8502L1074.27 48.1025V48.0933V48.0839V47.5216C1074.27 47.2301 1074.52 46.8523 1075.05 46.4962C1075.64 46.1605 1076.41 45.9844 1077.2 45.9844C1077.98 45.9844 1078.73 46.1618 1079.27 46.4932C1079.81 46.8502 1080.06 47.2293 1080.06 47.5216V47.5303V47.5388L1080.43 54.8488Z" fill="#F5F6F8" stroke="#9C9D9E" stroke-width="0.7"/>
<path d="M1055.94 65.047L1098.38 89.601L1119.65 77.3239L1077.12 52.77L1055.94 65.047Z" stroke="#9C9D9E" stroke-width="0.7" stroke-miterlimit="10"/>
<path d="M1098.38 138.803V89.6016" stroke="#9C9D9E" stroke-width="0.7" stroke-miterlimit="10"/>
<path d="M1055.94 65.0476V114.249L1098.38 138.803L1119.65 126.526V77.3246" stroke="#9C9D9E" stroke-width="0.7" stroke-miterlimit="10"/>
<path d="M1061.75 65.0475L1077.12 56.1443L1113.84 77.3245L1098.38 86.2276L1061.75 65.0475Z" stroke="#9C9D9E" stroke-width="0.7" stroke-miterlimit="10"/>
<path d="M1064.66 66.7346L1077.12 59.5183L1110.94 79.0116" stroke="#9C9D9E" stroke-width="0.7" stroke-miterlimit="10"/>
<path d="M1077.12 59.5181V56.1443" stroke="#9C9D9E" stroke-width="0.7" stroke-miterlimit="10"/>
<path d="M1094.63 77.1364L1099.6 79.9479L1104.66 77.1364L1099.6 74.2312L1094.63 77.1364Z" stroke="#9C9D9E" stroke-width="0.7" stroke-miterlimit="10"/>
<path d="M1099.6 82.4779V79.9475" stroke="#9C9D9E" stroke-width="0.7" stroke-miterlimit="10"/>
<path d="M1094.63 77.137V79.5736L1099.6 82.4788L1104.66 79.5736V77.137" stroke="#9C9D9E" stroke-width="0.7" stroke-miterlimit="10"/>
<path d="M1080.4 47.6162L1081.52 67.4843C1081.52 68.1403 1081.05 68.7963 1080.21 69.2649C1078.52 70.2022 1075.8 70.2022 1074.02 69.2649C1073.18 68.7963 1072.71 68.1403 1072.71 67.4843L1073.84 47.6162" fill="#F5F6F8"/>
<path d="M1080.4 47.6162L1081.52 67.4843C1081.52 68.1403 1081.05 68.7963 1080.21 69.2649C1078.52 70.2022 1075.8 70.2022 1074.02 69.2649C1073.18 68.7963 1072.71 68.1403 1072.71 67.4843L1073.84 47.6162" stroke="#9C9D9E" stroke-width="0.7" stroke-miterlimit="10"/>
<path d="M1079.46 48.9278C1080.68 48.1782 1080.68 47.0535 1079.46 46.3038C1078.24 45.554 1076.18 45.554 1074.87 46.3038C1073.56 47.0535 1073.65 48.1782 1074.87 48.9278C1076.08 49.6776 1078.15 49.6776 1079.46 48.9278Z" stroke="#9C9D9E" stroke-width="0.7" stroke-miterlimit="10"/>
<path d="M1078.16 47.1588C1078.42 47.306 1078.49 47.4676 1078.49 47.5693C1078.49 47.671 1078.42 47.8325 1078.16 47.9797C1077.9 48.1297 1077.52 48.2162 1077.12 48.2162C1076.71 48.2162 1076.33 48.1297 1076.06 47.9797C1075.81 47.8325 1075.75 47.671 1075.75 47.5693C1075.75 47.4676 1075.81 47.306 1076.06 47.1588C1076.33 47.0088 1076.71 46.9224 1077.12 46.9224C1077.52 46.9224 1077.9 47.0088 1078.16 47.1588Z" fill="#9C9D9E" stroke="#9C9D9E" stroke-width="0.7"/>
<path d="M1059.97 73.3884V84.3533L1066.44 88.102V77.1371L1059.97 73.3884Z" stroke="#9C9D9E" stroke-width="0.7" stroke-miterlimit="10"/>
<path d="M1069.15 78.7305V89.6954L1075.62 93.4441V82.3854L1069.15 78.7305Z" stroke="#9C9D9E" stroke-width="0.7" stroke-miterlimit="10"/>
<path d="M1078.34 83.9783V94.9432L1084.8 98.6921V87.727L1078.34 83.9783Z" stroke="#9C9D9E" stroke-width="0.7" stroke-miterlimit="10"/>
<path d="M1087.52 89.3203V100.285L1093.98 104.034V93.069L1087.52 89.3203Z" stroke="#9C9D9E" stroke-width="0.7" stroke-miterlimit="10"/>
<path d="M1117.31 83.9783V94.9432L1110.94 98.6921V87.727L1117.31 83.9783Z" stroke="#9C9D9E" stroke-width="0.7" stroke-miterlimit="10"/>
<path d="M1108.13 89.3203V100.285L1101.76 104.034V93.069L1108.13 89.3203Z" stroke="#9C9D9E" stroke-width="0.7" stroke-miterlimit="10"/>
<path d="M1117.31 98.3164V109.282L1110.94 113.031V101.972L1117.31 98.3164Z" stroke="#9C9D9E" stroke-width="0.7" stroke-miterlimit="10"/>
<path d="M1108.13 103.565V114.53L1101.76 118.279V107.313L1108.13 103.565Z" stroke="#9C9D9E" stroke-width="0.7" stroke-miterlimit="10"/>
<path d="M1059.97 87.6328V98.5978L1066.44 102.347V91.3815L1059.97 87.6328Z" stroke="#9C9D9E" stroke-width="0.7" stroke-miterlimit="10"/>
<path d="M1069.15 92.9749V103.94L1075.62 107.689V96.7234L1069.15 92.9749Z" stroke="#9C9D9E" stroke-width="0.7" stroke-miterlimit="10"/>
<path d="M1078.34 98.3164V109.282L1084.8 113.031V101.972L1078.34 98.3164Z" stroke="#9C9D9E" stroke-width="0.7" stroke-miterlimit="10"/>
<path d="M1087.52 103.565V114.53L1093.98 118.279V107.313L1087.52 103.565Z" stroke="#9C9D9E" stroke-width="0.7" stroke-miterlimit="10"/>
<path d="M935.737 219.493C960.284 222.211 990.166 216.026 1006.57 206.467L1138.76 129.618" stroke="#0E59C1" stroke-width="0.7" stroke-miterlimit="10"/>
<path d="M913.345 208.06C913.72 209.559 914.937 210.777 916.718 211.808C918.405 212.839 975.84 245.734 1049.47 203.374L1138.86 151.36V150.985V121.184" stroke="#9C9D9E" stroke-width="0.7" stroke-miterlimit="10"/>
<path d="M1081.37 138.797L1066.62 147.409L1036.98 129.989V112.943L1051.54 104.517L1081.37 121.66V138.797Z" fill="#F5F6F8" stroke="#9C9D9E" stroke-width="0.7"/>
<path d="M1036.64 112.75L1066.72 130.368L1081.71 121.558L1051.54 104.128L1036.64 112.75ZM1036.64 112.75C1036.64 112.655 1036.64 112.75 1036.64 112.75V112.75Z" stroke="#9C9D9E" stroke-width="0.7" stroke-miterlimit="10"/>
<path d="M1081.71 121.465V138.99L1066.62 147.8L1036.64 130.181V112.75" stroke="#9C9D9E" stroke-width="0.7" stroke-miterlimit="10"/>
<path d="M1066.62 130.275V147.8" stroke="#9C9D9E" stroke-width="0.7" stroke-miterlimit="10"/>
<path d="M1036.64 115.561L1066.62 133.18L1081.71 124.37" stroke="#9C9D9E" stroke-width="0.7" stroke-miterlimit="10"/>
<path d="M1038.61 116.685V131.399" stroke="#9C9D9E" stroke-width="0.7" stroke-miterlimit="10"/>
<path d="M1040.95 117.997V132.711" stroke="#9C9D9E" stroke-width="0.7" stroke-miterlimit="10"/>
<path d="M1043.2 119.403V134.023" stroke="#9C9D9E" stroke-width="0.7" stroke-miterlimit="10"/>
<path d="M1045.45 120.715V135.335" stroke="#9C9D9E" stroke-width="0.7" stroke-miterlimit="10"/>
<path d="M1047.79 122.027V136.647" stroke="#9C9D9E" stroke-width="0.7" stroke-miterlimit="10"/>
<path d="M1050.04 123.339V138.053" stroke="#9C9D9E" stroke-width="0.7" stroke-miterlimit="10"/>
<path d="M1052.38 124.651V139.365" stroke="#9C9D9E" stroke-width="0.7" stroke-miterlimit="10"/>
<path d="M1054.63 126.057V140.677" stroke="#9C9D9E" stroke-width="0.7" stroke-miterlimit="10"/>
<path d="M1056.97 127.369V141.989" stroke="#9C9D9E" stroke-width="0.7" stroke-miterlimit="10"/>
<path d="M1059.22 128.681V143.395" stroke="#9C9D9E" stroke-width="0.7" stroke-miterlimit="10"/>
<path d="M1061.56 129.992V144.706" stroke="#9C9D9E" stroke-width="0.7" stroke-miterlimit="10"/>
<path d="M1063.81 131.399V146.019" stroke="#9C9D9E" stroke-width="0.7" stroke-miterlimit="10"/>
<path d="M1074.21 128.681V143.301" stroke="#9C9D9E" stroke-width="0.7" stroke-miterlimit="10"/>
<path d="M1066.28 147.514L1051.63 156.124L1021.89 138.704V121.66L1036.45 113.233L1066.28 130.469V147.514Z" fill="#F5F6F8" stroke="#9C9D9E" stroke-width="0.7"/>
<path d="M1021.55 121.465L1051.63 139.084L1066.62 130.275L1036.45 112.843L1021.55 121.465Z" stroke="#9C9D9E" stroke-width="0.7" stroke-miterlimit="10"/>
<path d="M1066.62 130.275V147.706L1051.63 156.516L1021.55 138.897V121.466" stroke="#9C9D9E" stroke-width="0.7" stroke-miterlimit="10"/>
<path d="M1051.63 139.084V156.515" stroke="#9C9D9E" stroke-width="0.7" stroke-miterlimit="10"/>
<path d="M1021.55 124.278L1051.63 141.896L1066.62 133.086" stroke="#9C9D9E" stroke-width="0.7" stroke-miterlimit="10"/>
<path d="M1023.62 125.402V140.115" stroke="#9C9D9E" stroke-width="0.7" stroke-miterlimit="10"/>
<path d="M1025.87 126.806V141.426" stroke="#9C9D9E" stroke-width="0.7" stroke-miterlimit="10"/>
<path d="M1028.21 128.119V142.739" stroke="#9C9D9E" stroke-width="0.7" stroke-miterlimit="10"/>
<path d="M1030.46 129.431V144.144" stroke="#9C9D9E" stroke-width="0.7" stroke-miterlimit="10"/>
<path d="M1032.71 130.743V145.457" stroke="#9C9D9E" stroke-width="0.7" stroke-miterlimit="10"/>
<path d="M1035.05 132.148V146.768" stroke="#9C9D9E" stroke-width="0.7" stroke-miterlimit="10"/>
<path d="M1037.3 133.461V148.081" stroke="#9C9D9E" stroke-width="0.7" stroke-miterlimit="10"/>
<path d="M1039.64 134.773V149.393" stroke="#9C9D9E" stroke-width="0.7" stroke-miterlimit="10"/>
<path d="M1041.88 136.085V150.799" stroke="#9C9D9E" stroke-width="0.7" stroke-miterlimit="10"/>
<path d="M1044.23 137.398V152.111" stroke="#9C9D9E" stroke-width="0.7" stroke-miterlimit="10"/>
<path d="M1046.47 138.803V153.423" stroke="#9C9D9E" stroke-width="0.7" stroke-miterlimit="10"/>
<path d="M1048.82 140.115V154.735" stroke="#9C9D9E" stroke-width="0.7" stroke-miterlimit="10"/>
<path d="M1059.13 137.398V152.018" stroke="#9C9D9E" stroke-width="0.7" stroke-miterlimit="10"/>
<path d="M1051.29 156.323L1036.64 164.934L1006.91 147.513V130.375L1021.47 121.948L1051.29 139.185V156.323Z" fill="#F5F6F8" stroke="#9C9D9E" stroke-width="0.7"/>
<path d="M1006.57 130.18L1036.64 147.8L1051.63 138.99L1021.47 121.558L1006.57 130.18Z" stroke="#9C9D9E" stroke-width="0.7" stroke-miterlimit="10"/>
<path d="M1051.63 138.99V156.515L1036.64 165.325L1006.57 147.705V130.18" stroke="#9C9D9E" stroke-width="0.7" stroke-miterlimit="10"/>
<path d="M1036.64 147.799V165.325" stroke="#9C9D9E" stroke-width="0.7" stroke-miterlimit="10"/>
<path d="M1006.57 132.992L1036.64 150.611L1051.63 141.802" stroke="#9C9D9E" stroke-width="0.7" stroke-miterlimit="10"/>
<path d="M1008.53 134.21V148.83" stroke="#9C9D9E" stroke-width="0.7" stroke-miterlimit="10"/>
<path d="M1010.87 135.522V150.142" stroke="#9C9D9E" stroke-width="0.7" stroke-miterlimit="10"/>
<path d="M1013.12 136.835V151.549" stroke="#9C9D9E" stroke-width="0.7" stroke-miterlimit="10"/>
<path d="M1015.46 138.146V152.86" stroke="#9C9D9E" stroke-width="0.7" stroke-miterlimit="10"/>
<path d="M1017.72 139.552V154.172" stroke="#9C9D9E" stroke-width="0.7" stroke-miterlimit="10"/>
<path d="M1019.96 140.865V155.484" stroke="#9C9D9E" stroke-width="0.7" stroke-miterlimit="10"/>
<path d="M1022.31 142.177V156.891" stroke="#9C9D9E" stroke-width="0.7" stroke-miterlimit="10"/>
<path d="M1024.55 143.488V158.202" stroke="#9C9D9E" stroke-width="0.7" stroke-miterlimit="10"/>
<path d="M1026.9 144.8V159.514" stroke="#9C9D9E" stroke-width="0.7" stroke-miterlimit="10"/>
<path d="M1029.14 146.207V160.827" stroke="#9C9D9E" stroke-width="0.7" stroke-miterlimit="10"/>
<path d="M1031.49 147.518V162.138" stroke="#9C9D9E" stroke-width="0.7" stroke-miterlimit="10"/>
<path d="M1033.73 148.831V163.544" stroke="#9C9D9E" stroke-width="0.7" stroke-miterlimit="10"/>
<path d="M1044.14 146.112V160.827" stroke="#9C9D9E" stroke-width="0.7" stroke-miterlimit="10"/>
<path d="M1036.31 165.038L1021.55 173.65L991.819 156.229V139.091L1006.47 130.664L1036.31 147.9V165.038Z" fill="#F5F6F8" stroke="#9C9D9E" stroke-width="0.7"/>
<path d="M991.481 138.991L1021.55 156.61L1036.55 147.8L1006.38 130.369L991.481 138.991ZM991.481 138.991C991.481 138.898 991.481 138.991 991.481 138.991V138.991Z" stroke="#9C9D9E" stroke-width="0.7" stroke-miterlimit="10"/>
<path d="M1036.64 147.706V165.231L1021.55 174.041L991.481 156.422V138.896" stroke="#9C9D9E" stroke-width="0.7" stroke-miterlimit="10"/>
<path d="M1021.55 156.516V174.041" stroke="#9C9D9E" stroke-width="0.7" stroke-miterlimit="10"/>
<path d="M991.481 141.803L1021.55 159.421L1036.64 150.612" stroke="#9C9D9E" stroke-width="0.7" stroke-miterlimit="10"/>
<path d="M993.54 142.927V157.547" stroke="#9C9D9E" stroke-width="0.7" stroke-miterlimit="10"/>
<path d="M995.792 144.239V158.952" stroke="#9C9D9E" stroke-width="0.7" stroke-miterlimit="10"/>
<path d="M998.132 145.551V160.265" stroke="#9C9D9E" stroke-width="0.7" stroke-miterlimit="10"/>
<path d="M1000.38 146.956V161.576" stroke="#9C9D9E" stroke-width="0.7" stroke-miterlimit="10"/>
<path d="M1002.72 148.269V162.889" stroke="#9C9D9E" stroke-width="0.7" stroke-miterlimit="10"/>
<path d="M1004.98 149.581V164.294" stroke="#9C9D9E" stroke-width="0.7" stroke-miterlimit="10"/>
<path d="M1007.23 150.893V165.607" stroke="#9C9D9E" stroke-width="0.7" stroke-miterlimit="10"/>
<path d="M1009.57 152.298V166.918" stroke="#9C9D9E" stroke-width="0.7" stroke-miterlimit="10"/>
<path d="M1011.81 153.611V168.231" stroke="#9C9D9E" stroke-width="0.7" stroke-miterlimit="10"/>
<path d="M1014.16 154.923V169.636" stroke="#9C9D9E" stroke-width="0.7" stroke-miterlimit="10"/>
<path d="M1016.4 156.234V170.948" stroke="#9C9D9E" stroke-width="0.7" stroke-miterlimit="10"/>
<path d="M1018.75 157.547V172.26" stroke="#9C9D9E" stroke-width="0.7" stroke-miterlimit="10"/>
<path d="M1029.06 154.923V169.543" stroke="#9C9D9E" stroke-width="0.7" stroke-miterlimit="10"/>
<path d="M1066.28 130.082L1051.63 138.692L1021.89 121.272V104.134L1036.45 95.7078L1066.28 112.943V130.082Z" fill="#F5F6F8" stroke="#9C9D9E" stroke-width="0.7"/>
<path d="M1021.55 103.94L1051.63 121.559L1066.62 112.75L1036.45 95.3181L1021.55 103.94Z" stroke="#9C9D9E" stroke-width="0.7" stroke-miterlimit="10"/>
<path d="M1066.62 112.75V130.275L1051.63 139.085L1021.55 121.465V103.94" stroke="#9C9D9E" stroke-width="0.7" stroke-miterlimit="10"/>
<path d="M1051.63 121.558V139.083" stroke="#9C9D9E" stroke-width="0.7" stroke-miterlimit="10"/>
<path d="M1021.55 106.845L1051.63 124.37L1066.62 115.56" stroke="#9C9D9E" stroke-width="0.7" stroke-miterlimit="10"/>
<path d="M1023.62 107.97V122.59" stroke="#9C9D9E" stroke-width="0.7" stroke-miterlimit="10"/>
<path d="M1025.87 109.282V123.902" stroke="#9C9D9E" stroke-width="0.7" stroke-miterlimit="10"/>
<path d="M1028.21 110.594V125.308" stroke="#9C9D9E" stroke-width="0.7" stroke-miterlimit="10"/>
<path d="M1030.46 111.906V126.619" stroke="#9C9D9E" stroke-width="0.7" stroke-miterlimit="10"/>
<path d="M1032.71 113.312V127.932" stroke="#9C9D9E" stroke-width="0.7" stroke-miterlimit="10"/>
<path d="M1035.05 114.624V129.244" stroke="#9C9D9E" stroke-width="0.7" stroke-miterlimit="10"/>
<path d="M1037.3 115.936V130.65" stroke="#9C9D9E" stroke-width="0.7" stroke-miterlimit="10"/>
<path d="M1039.64 117.248V131.961" stroke="#9C9D9E" stroke-width="0.7" stroke-miterlimit="10"/>
<path d="M1041.88 118.654V133.274" stroke="#9C9D9E" stroke-width="0.7" stroke-miterlimit="10"/>
<path d="M1044.23 119.966V134.586" stroke="#9C9D9E" stroke-width="0.7" stroke-miterlimit="10"/>
<path d="M1046.47 121.277V135.991" stroke="#9C9D9E" stroke-width="0.7" stroke-miterlimit="10"/>
<path d="M1048.82 122.59V137.304" stroke="#9C9D9E" stroke-width="0.7" stroke-miterlimit="10"/>
<path d="M1059.13 119.872V134.586" stroke="#9C9D9E" stroke-width="0.7" stroke-miterlimit="10"/>
<path d="M1051.29 138.797L1036.64 147.409L1006.91 129.988V112.943L1021.47 104.517L1051.29 121.753V138.797Z" fill="#F5F6F8" stroke="#9C9D9E" stroke-width="0.7"/>
<path d="M1006.57 112.75L1036.64 130.368L1051.63 121.558L1021.47 104.128L1006.57 112.75Z" stroke="#9C9D9E" stroke-width="0.7" stroke-miterlimit="10"/>
<path d="M1051.63 121.558V138.99L1036.64 147.8L1006.57 130.181V112.75" stroke="#9C9D9E" stroke-width="0.7" stroke-miterlimit="10"/>
<path d="M1036.64 130.275V147.8" stroke="#9C9D9E" stroke-width="0.7" stroke-miterlimit="10"/>
<path d="M1006.57 115.561L1036.64 133.18L1051.63 124.37" stroke="#9C9D9E" stroke-width="0.7" stroke-miterlimit="10"/>
<path d="M1008.53 116.685V131.399" stroke="#9C9D9E" stroke-width="0.7" stroke-miterlimit="10"/>
<path d="M1010.87 117.997V132.711" stroke="#9C9D9E" stroke-width="0.7" stroke-miterlimit="10"/>
<path d="M1013.12 119.403V134.023" stroke="#9C9D9E" stroke-width="0.7" stroke-miterlimit="10"/>
<path d="M1015.46 120.715V135.335" stroke="#9C9D9E" stroke-width="0.7" stroke-miterlimit="10"/>
<path d="M1017.72 122.027V136.647" stroke="#9C9D9E" stroke-width="0.7" stroke-miterlimit="10"/>
<path d="M1019.96 123.339V138.053" stroke="#9C9D9E" stroke-width="0.7" stroke-miterlimit="10"/>
<path d="M1022.31 124.651V139.365" stroke="#9C9D9E" stroke-width="0.7" stroke-miterlimit="10"/>
<path d="M1024.55 126.057V140.677" stroke="#9C9D9E" stroke-width="0.7" stroke-miterlimit="10"/>
<path d="M1026.9 127.369V141.989" stroke="#9C9D9E" stroke-width="0.7" stroke-miterlimit="10"/>
<path d="M1029.14 128.681V143.395" stroke="#9C9D9E" stroke-width="0.7" stroke-miterlimit="10"/>
<path d="M1031.49 129.992V144.706" stroke="#9C9D9E" stroke-width="0.7" stroke-miterlimit="10"/>
<path d="M1033.73 131.399V146.019" stroke="#9C9D9E" stroke-width="0.7" stroke-miterlimit="10"/>
<path d="M1044.14 128.681V143.301" stroke="#9C9D9E" stroke-width="0.7" stroke-miterlimit="10"/>
<path d="M1036.31 147.513L1021.55 156.125L991.819 138.704V121.661L1006.47 113.233L1036.31 130.469V147.513Z" fill="#0E59C1" stroke="#9C9D9E" stroke-width="0.7"/>
<path d="M991.481 121.465L1021.55 139.084L1036.55 130.275L1006.38 112.843L991.481 121.465Z" stroke="#9C9D9E" stroke-width="0.7" stroke-miterlimit="10"/>
<path d="M1036.64 130.275V147.706L1021.55 156.516L991.481 138.897V121.466" stroke="#9C9D9E" stroke-width="0.7" stroke-miterlimit="10"/>
<path d="M1021.55 139.084V156.515" stroke="#9C9D9E" stroke-width="0.7" stroke-miterlimit="10"/>
<path d="M991.481 124.278L1021.55 141.896L1036.64 133.086" stroke="#9C9D9E" stroke-width="0.7" stroke-miterlimit="10"/>
<path d="M993.54 125.402V140.115" stroke="#9C9D9E" stroke-width="0.7" stroke-miterlimit="10"/>
<path d="M995.792 126.806V141.426" stroke="#9C9D9E" stroke-width="0.7" stroke-miterlimit="10"/>
<path d="M998.132 128.119V142.739" stroke="#9C9D9E" stroke-width="0.7" stroke-miterlimit="10"/>
<path d="M1000.38 129.431V144.144" stroke="#9C9D9E" stroke-width="0.7" stroke-miterlimit="10"/>
<path d="M1002.72 130.743V145.457" stroke="#9C9D9E" stroke-width="0.7" stroke-miterlimit="10"/>
<path d="M1004.98 132.148V146.768" stroke="#9C9D9E" stroke-width="0.7" stroke-miterlimit="10"/>
<path d="M1007.23 133.461V148.081" stroke="#9C9D9E" stroke-width="0.7" stroke-miterlimit="10"/>
<path d="M1009.57 134.773V149.393" stroke="#9C9D9E" stroke-width="0.7" stroke-miterlimit="10"/>
<path d="M1011.81 136.085V150.799" stroke="#9C9D9E" stroke-width="0.7" stroke-miterlimit="10"/>
<path d="M1014.16 137.398V152.111" stroke="#9C9D9E" stroke-width="0.7" stroke-miterlimit="10"/>
<path d="M1016.4 138.803V153.423" stroke="#9C9D9E" stroke-width="0.7" stroke-miterlimit="10"/>
<path d="M1018.75 140.115V154.735" stroke="#9C9D9E" stroke-width="0.7" stroke-miterlimit="10"/>
<path d="M1029.06 137.398V152.018" stroke="#9C9D9E" stroke-width="0.7" stroke-miterlimit="10"/>
<path d="M1021.22 173.754L1006.57 182.366L976.826 164.944V147.9L991.384 139.474L1021.22 156.71V173.754Z" fill="#F5F6F8" stroke="#9C9D9E" stroke-width="0.7"/>
<path d="M976.488 147.706L1006.57 165.325L1021.55 156.515L991.384 139.084L976.488 147.706Z" stroke="#9C9D9E" stroke-width="0.7" stroke-miterlimit="10"/>
<path d="M1021.55 156.515V173.947L1006.57 182.757L976.488 165.138V147.706" stroke="#9C9D9E" stroke-width="0.7" stroke-miterlimit="10"/>
<path d="M1006.57 165.325V182.757" stroke="#9C9D9E" stroke-width="0.7" stroke-miterlimit="10"/>
<path d="M976.488 150.518L1006.57 168.137L1021.55 159.327" stroke="#9C9D9E" stroke-width="0.7" stroke-miterlimit="10"/>
<path d="M978.46 151.642V166.356" stroke="#9C9D9E" stroke-width="0.7" stroke-miterlimit="10"/>
<path d="M980.799 153.048V167.668" stroke="#9C9D9E" stroke-width="0.7" stroke-miterlimit="10"/>
<path d="M983.052 154.359V168.979" stroke="#9C9D9E" stroke-width="0.7" stroke-miterlimit="10"/>
<path d="M985.391 155.671V170.291" stroke="#9C9D9E" stroke-width="0.7" stroke-miterlimit="10"/>
<path d="M987.643 156.984V171.698" stroke="#9C9D9E" stroke-width="0.7" stroke-miterlimit="10"/>
<path d="M989.983 158.296V173.01" stroke="#9C9D9E" stroke-width="0.7" stroke-miterlimit="10"/>
<path d="M992.235 159.701V174.321" stroke="#9C9D9E" stroke-width="0.7" stroke-miterlimit="10"/>
<path d="M994.478 161.013V175.633" stroke="#9C9D9E" stroke-width="0.7" stroke-miterlimit="10"/>
<path d="M996.827 162.325V177.04" stroke="#9C9D9E" stroke-width="0.7" stroke-miterlimit="10"/>
<path d="M999.069 163.638V178.352" stroke="#9C9D9E" stroke-width="0.7" stroke-miterlimit="10"/>
<path d="M1001.42 165.044V179.664" stroke="#9C9D9E" stroke-width="0.7" stroke-miterlimit="10"/>
<path d="M1003.66 166.355V180.975" stroke="#9C9D9E" stroke-width="0.7" stroke-miterlimit="10"/>
<path d="M1014.06 163.638V178.258" stroke="#9C9D9E" stroke-width="0.7" stroke-miterlimit="10"/>
<path d="M1006.23 182.564L991.481 191.175L961.747 173.754V156.617L976.401 148.19L1006.23 165.426V182.564Z" fill="#F5F6F8" stroke="#9C9D9E" stroke-width="0.7"/>
<path d="M961.409 156.422L991.481 174.041L1006.47 165.231L976.304 147.8L961.409 156.422Z" stroke="#9C9D9E" stroke-width="0.7" stroke-miterlimit="10"/>
<path d="M1006.57 165.231V182.756L991.481 191.566L961.409 173.948V156.423" stroke="#9C9D9E" stroke-width="0.7" stroke-miterlimit="10"/>
<path d="M991.481 174.041V191.566" stroke="#9C9D9E" stroke-width="0.7" stroke-miterlimit="10"/>
<path d="M961.409 159.234L991.481 176.853L1006.57 168.043" stroke="#9C9D9E" stroke-width="0.7" stroke-miterlimit="10"/>
<path d="M963.47 160.452V175.072" stroke="#9C9D9E" stroke-width="0.7" stroke-miterlimit="10"/>
<path d="M965.719 161.764V176.384" stroke="#9C9D9E" stroke-width="0.7" stroke-miterlimit="10"/>
<path d="M968.059 163.077V177.79" stroke="#9C9D9E" stroke-width="0.7" stroke-miterlimit="10"/>
<path d="M970.311 164.388V179.101" stroke="#9C9D9E" stroke-width="0.7" stroke-miterlimit="10"/>
<path d="M972.65 165.794V180.414" stroke="#9C9D9E" stroke-width="0.7" stroke-miterlimit="10"/>
<path d="M974.903 167.106V181.726" stroke="#9C9D9E" stroke-width="0.7" stroke-miterlimit="10"/>
<path d="M977.145 168.419V183.039" stroke="#9C9D9E" stroke-width="0.7" stroke-miterlimit="10"/>
<path d="M979.494 169.73V184.443" stroke="#9C9D9E" stroke-width="0.7" stroke-miterlimit="10"/>
<path d="M981.737 171.042V185.756" stroke="#9C9D9E" stroke-width="0.7" stroke-miterlimit="10"/>
<path d="M984.086 172.448V187.068" stroke="#9C9D9E" stroke-width="0.7" stroke-miterlimit="10"/>
<path d="M986.329 173.76V188.38" stroke="#9C9D9E" stroke-width="0.7" stroke-miterlimit="10"/>
<path d="M988.678 175.072V189.785" stroke="#9C9D9E" stroke-width="0.7" stroke-miterlimit="10"/>
<path d="M998.982 172.354V187.068" stroke="#9C9D9E" stroke-width="0.7" stroke-miterlimit="10"/>
<path d="M1062 61.0035L1010.02 31.1895C994.739 22.4334 969.77 22.4334 954.552 31.1895L903.813 60.2799C888.525 69.036 863.555 69.036 848.341 60.2799L795.854 30.1401L782.731 22.6052" stroke="#7E7E7E" stroke-width="0.7" stroke-miterlimit="10" stroke-dasharray="2 3"/>
<path d="M829.122 112.165C833.272 109.777 833.272 105.869 829.122 103.481C824.973 101.093 818.13 101.093 813.98 103.481C809.831 105.869 809.831 109.777 813.98 112.165C818.13 114.553 824.899 114.553 829.122 112.165Z" stroke="#7E7E7E" stroke-width="0.7" stroke-miterlimit="10" stroke-dasharray="2 3"/>
<path d="M1378.35 254.174C1382.51 251.786 1382.51 247.878 1378.35 245.49C1374.2 243.102 1367.36 243.102 1363.21 245.49C1359.07 247.878 1359.07 251.786 1363.21 254.174C1367.36 256.562 1374.14 256.562 1378.35 254.174Z" stroke="#7E7E7E" stroke-width="0.7" stroke-miterlimit="10" stroke-dasharray="2 3"/>
<path d="M781.925 22.0367C786.075 19.6488 786.075 15.741 781.925 13.3531C777.775 10.965 770.933 10.965 766.783 13.3531C762.633 15.741 762.633 19.6488 766.783 22.0367C770.933 24.4248 777.703 24.4248 781.925 22.0367Z" stroke="#7E7E7E" stroke-width="0.7" stroke-miterlimit="10" stroke-dasharray="2 3"/>
<path d="M904.978 59.7012L828.394 103.12" stroke="#7E7E7E" stroke-width="0.7" stroke-miterlimit="10" stroke-dasharray="2 3"/>
<path d="M565.388 170.372C569.538 167.984 569.538 164.076 565.388 161.689C561.239 159.301 554.396 159.301 550.246 161.689C546.097 164.076 546.097 167.984 550.246 170.372C554.396 172.76 561.165 172.76 565.388 170.372Z" stroke="#7E7E7E" stroke-width="0.7" stroke-miterlimit="10" stroke-dasharray="2 3"/>
<path d="M137.155 164.593C141.304 162.205 141.304 158.297 137.155 155.909C133.006 153.521 126.163 153.521 122.013 155.909C117.864 158.297 117.864 162.205 122.013 164.593C126.163 166.981 132.932 166.981 137.155 164.593Z" stroke="#7E7E7E" stroke-width="0.7" stroke-miterlimit="10" stroke-dasharray="2 3"/>
<path d="M205.788 46.1149C209.938 43.7268 209.938 39.8192 205.788 37.4311C201.639 35.0431 194.796 35.0431 190.646 37.4311C186.497 39.8192 186.497 43.7268 190.646 46.1149C194.796 48.5029 201.565 48.5029 205.788 46.1149Z" stroke="#7E7E7E" stroke-width="0.7" stroke-miterlimit="10" stroke-dasharray="2 3"/>
</svg>
