<svg width="45" height="45" viewBox="0 0 45 45" fill="none" xmlns="http://www.w3.org/2000/svg">
<path d="M22.5 0C10.0755 0 0 10.0755 0 22.5C0 34.9245 10.0755 45 22.5 45C34.9245 45 45 34.9245 45 22.5C45 10.0755 34.9245 0 22.5 0ZM5.814 12.6405H9.306C12.861 12.6405 15.5205 14.1615 17.7255 16.2225C16.9785 17.1225 16.29 18.027 15.6375 18.8865C15.3675 19.2375 15.1065 19.5885 14.841 19.926C13.248 18.3555 11.52 17.316 9.306 17.316H5.814V12.6405ZM9.306 32.3325H5.814V27.6615H9.306C13.1535 27.6615 15.534 24.5295 18.2925 20.9115C21.357 16.8795 24.8355 12.312 30.996 12.312H32.175V8.3295L39.1815 14.337L32.1795 20.3445V16.983H31.0005C27.153 16.983 24.7725 20.115 22.014 23.7375C18.945 27.7695 15.471 32.3325 9.306 32.3325ZM32.1795 36.6705V32.6655H31.0005C27.2745 32.6655 24.534 30.996 22.2705 28.7865C23.1435 27.7605 23.9355 26.7255 24.6735 25.758C24.8445 25.533 25.011 25.3125 25.1775 25.092C26.8515 26.8245 28.656 27.9945 31.0005 27.9945H32.1795V24.66L39.186 30.6675L32.1795 36.6705Z" fill="white"/>
</svg>
