<svg width="169" height="169" viewBox="0 0 169 169" fill="none" xmlns="http://www.w3.org/2000/svg">
<path d="M169 84.5C169 106.911 160.097 128.404 144.251 144.251C128.404 160.097 106.911 169 84.5 169C62.0892 169 40.5963 160.097 24.7495 144.251C8.90265 128.404 0 106.911 0 84.5C0 62.0892 8.90265 40.5963 24.7495 24.7495C40.5963 8.90265 62.0892 0 84.5 0C106.911 0 128.404 8.90265 144.251 24.7495C160.097 40.5963 169 62.0892 169 84.5ZM71.7194 53.7948C70.9297 53.2326 70.0005 52.8985 69.0335 52.8293C68.0666 52.76 67.0993 52.9582 66.2375 53.4022C65.3758 53.8461 64.6528 54.5187 64.1479 55.3463C63.643 56.1738 63.3756 57.1243 63.375 58.0938V110.906C63.3756 111.876 63.643 112.826 64.1479 113.654C64.6528 114.481 65.3758 115.154 66.2375 115.598C67.0993 116.042 68.0666 116.24 69.0335 116.171C70.0005 116.101 70.9297 115.767 71.7194 115.205L108.688 88.7989C109.373 88.3104 109.931 87.6654 110.316 86.9177C110.701 86.1699 110.902 85.341 110.902 84.5C110.902 83.659 110.701 82.8301 110.316 82.0823C109.931 81.3346 109.373 80.6896 108.688 80.2011L71.7194 53.7948Z" fill="white"/>
<path d="M71.7194 53.7948C70.9297 53.2326 70.0005 52.8985 69.0335 52.8293C68.0666 52.76 67.0993 52.9582 66.2375 53.4022C65.3758 53.8461 64.6528 54.5187 64.1479 55.3463C63.643 56.1738 63.3756 57.1243 63.375 58.0938V110.906C63.3756 111.876 63.643 112.826 64.1479 113.654C64.6528 114.481 65.3758 115.154 66.2375 115.598C67.0993 116.042 68.0666 116.24 69.0335 116.171C70.0005 116.101 70.9297 115.767 71.7194 115.205L108.688 88.7989C109.373 88.3104 109.931 87.6654 110.316 86.9177C110.701 86.1699 110.902 85.341 110.902 84.5C110.902 83.659 110.701 82.8301 110.316 82.0823C109.931 81.3346 109.373 80.6896 108.688 80.2011L71.7194 53.7948Z" fill="#0E59C1"/>
</svg>
