<svg width="548" height="376" viewBox="0 0 548 376" fill="none" xmlns="http://www.w3.org/2000/svg">
<path d="M512.291 47.6655H1V320.895H512.291V47.6655Z" fill="#043375"/>
<path d="M352.762 231.284V255.694C353.193 263.974 347.968 272.307 337.087 278.598C316.133 290.696 281.873 290.696 260.919 278.598C250.468 272.577 245.19 264.619 245.19 256.662V232.198L352.762 231.284Z" fill="#043375" stroke="#0E59C1" stroke-miterlimit="10"/>
<path d="M261.033 253.896C250.618 247.883 245.486 240.019 245.486 232.225C245.486 224.43 250.618 216.567 261.033 210.554C271.447 204.542 285.188 201.526 298.948 201.526C312.708 201.526 326.45 204.542 336.863 210.554C347.278 216.567 352.41 224.43 352.41 232.225C352.41 240.019 347.278 247.883 336.863 253.896C326.45 259.908 312.708 262.923 298.948 262.923C285.188 262.923 271.447 259.908 261.033 253.896Z" fill="#043375" stroke="#00C389"/>
<path d="M260.864 210.261C239.91 222.359 239.91 242.091 260.864 254.188C281.818 266.286 316.078 266.286 337.032 254.188C357.987 242.091 357.987 222.359 337.032 210.261C316.078 198.164 281.818 198.164 260.864 210.261Z" stroke="#0E59C1" stroke-miterlimit="10"/>
<path d="M15.2025 246.923C15.2025 246.923 26.2072 240.525 39.6948 232.712C53.1823 224.899 79.822 227.593 99.013 238.706L128.121 255.454" stroke="#B0B0B0" stroke-width="0.7" stroke-miterlimit="10" stroke-dasharray="1.82 2.73"/>
<path d="M267.44 281.407C267.44 281.407 256.435 287.806 242.948 295.619C229.461 303.432 202.821 300.738 183.63 289.625L132.204 259.689" stroke="#B0B0B0" stroke-width="0.7" stroke-miterlimit="10" stroke-dasharray="1.82 2.73"/>
<path d="M186.986 221.478L111.204 267.093C84.4318 282.804 78.044 304.63 96.8313 315.543C115.618 326.456 115.713 344.237 96.8313 355.15C77.95 366.063 62.5443 375 62.5443 375" stroke="#B0B0B0" stroke-width="0.7" stroke-miterlimit="10" stroke-dasharray="1.82 2.73"/>
<path d="M222.83 147.759L183.604 125.441C164.262 114.35 164.194 96.1568 183.536 84.9977L187.662 82.6306C207.004 71.4715 207.004 53.2787 187.594 42.1872L113.268 1" stroke="#B0B0B0" stroke-width="0.7" stroke-miterlimit="10" stroke-dasharray="1.82 2.73"/>
<path d="M3.40709 247.219C0.197638 249.078 0.197638 252.121 3.40709 253.98C6.61653 255.84 11.9093 255.84 15.1187 253.98C18.3282 252.121 18.3282 249.078 15.1187 247.219C11.9093 245.36 6.61653 245.36 3.40709 247.219Z" stroke="#B0B0B0" stroke-width="0.7" stroke-miterlimit="10" stroke-dasharray="1.82 2.73"/>
<path d="M547.715 205.246L486.805 240.343C476.495 246.264 475.325 255.34 484.206 260.441C493.086 265.541 491.874 274.531 481.519 280.409L471.642 286.027C465.839 289.298 457.966 293.764 450.343 298.093M394.614 329.643L433.996 307.379C435.387 306.589 436.898 305.731 438.495 304.823L394.614 329.643Z" stroke="#B8B8B8" stroke-width="0.7" stroke-miterlimit="10" stroke-dasharray="1.86 2.79"/>
<path d="M450.102 298.361C453.249 300.182 453.249 303.161 450.102 304.982C446.955 306.803 441.766 306.803 438.619 304.982C435.472 303.161 435.472 300.182 438.619 298.361C441.766 296.54 446.9 296.54 450.102 298.361Z" stroke="#B8B8B8" stroke-width="0.7" stroke-miterlimit="10" stroke-dasharray="1.69 2.54"/>
<path d="M335.098 279.385L336.799 280.686C351.215 289.084 371.297 291.209 381.465 285.34C391.632 279.472 411.713 281.495 426.18 289.842L438.993 297.499" stroke="#B8B8B8" stroke-width="0.7" stroke-miterlimit="10" stroke-dasharray="1.69 2.54"/>
<path d="M490.889 1.67627L395.665 56.6159C383.179 63.9279 380.2 74.0858 388.962 79.1649C397.723 84.2438 397.767 92.5191 388.962 97.5981C380.156 102.677 372.972 106.837 372.972 106.837" stroke="#B8B8B8" stroke-width="0.7" stroke-miterlimit="10" stroke-dasharray="1.69 2.54"/>
<path d="M337.127 227.602L373.632 206.348C384.75 199.878 400.223 198.309 407.998 202.858C415.773 207.406 431.285 205.799 442.403 199.329L488.845 171.346" stroke="#B8B8B8" stroke-width="0.7" stroke-miterlimit="10" stroke-dasharray="1.69 2.54"/>
<path d="M328.253 115.185C329.99 114.141 332.856 114.141 334.593 115.185L344.494 120.929C346.231 121.973 346.231 123.626 344.494 124.584L334.68 130.328C332.943 131.372 330.077 131.372 328.34 130.328L318.439 124.584C316.701 123.54 316.701 121.886 318.439 120.929L328.253 115.185Z" fill="#043375" stroke="white" stroke-miterlimit="10" stroke-dasharray="1.6 2.5"/>
<path d="M299.679 131.546C301.416 130.502 304.282 130.502 306.019 131.546L315.92 137.29C317.657 138.334 317.657 139.988 315.92 140.945L306.106 146.601C304.369 147.645 301.503 147.645 299.766 146.601L289.865 140.858C288.127 139.814 288.127 138.16 289.865 137.203L299.679 131.546Z" fill="#043375" stroke="white" stroke-miterlimit="10" stroke-dasharray="1.6 2.5"/>
<path d="M271.017 147.82C272.755 146.776 275.621 146.776 277.358 147.82L287.259 153.564C288.996 154.608 288.996 156.261 287.259 157.219L277.444 162.876C275.707 163.92 272.841 163.92 271.104 162.876L261.203 157.132C259.466 156.088 259.466 154.434 261.203 153.477L271.017 147.82Z" fill="#043375" stroke="white" stroke-miterlimit="10" stroke-dasharray="1.6 2.5"/>
<path d="M403.205 162.874L354.916 134.939" stroke="white" stroke-miterlimit="10" stroke-dasharray="1.6 2.5"/>
<path d="M370.376 154.084L346.144 139.986" stroke="white" stroke-miterlimit="10" stroke-dasharray="1.6 2.5"/>
<path d="M374.804 179.323L326.515 151.388" stroke="white" stroke-miterlimit="10" stroke-dasharray="1.6 2.5"/>
<path d="M366.12 184.458L341.801 170.36" stroke="white" stroke-miterlimit="10" stroke-dasharray="1.6 2.5"/>
<path d="M346.493 195.859L298.203 167.923" stroke="white" stroke-miterlimit="10" stroke-dasharray="1.6 2.5"/>
<path d="M277.097 230.494C270.236 226.491 270.149 220.051 277.01 216.048C283.872 212.044 294.988 212.044 301.849 216.048C308.711 220.051 308.798 226.491 301.937 230.494C295.162 234.41 284.045 234.41 277.097 230.494Z" fill="#043375" stroke="white" stroke-miterlimit="10" stroke-dasharray="1.6 2.5"/>
<path d="M141.768 193.12C140.417 192.338 140.417 190.388 141.767 189.607L310.968 91.7114C312.016 91.1055 313.307 91.1053 314.355 91.711L440.072 164.403C441.423 165.184 441.423 167.134 440.073 167.915L270.872 265.811C269.824 266.417 268.533 266.417 267.485 265.811L141.768 193.12Z" fill="#043375" stroke="white" stroke-miterlimit="10" stroke-dasharray="1.6 2.5"/>
<path d="M141.768 185.642C140.417 184.861 140.417 182.911 141.767 182.129L310.968 84.2344C312.016 83.6284 313.307 83.6282 314.355 84.2339L440.072 156.926C441.423 157.707 441.423 159.657 440.073 160.438L270.872 258.333C269.824 258.939 268.533 258.94 267.485 258.334L141.768 185.642Z" fill="#043375" stroke="white" stroke-miterlimit="10" stroke-dasharray="1.6 2.5"/>
<path d="M141.768 178.165C140.417 177.383 140.417 175.434 141.767 174.652L310.968 76.7569C312.016 76.1509 313.307 76.1507 314.355 76.7564L440.072 149.448C441.423 150.229 441.423 152.179 440.073 152.961L270.872 250.856C269.824 251.462 268.533 251.462 267.485 250.856L141.768 178.165Z" fill="#043375" stroke="white" stroke-miterlimit="10" stroke-dasharray="1.6 2.5"/>
<path d="M310.552 108.775C310.683 108.847 310.834 108.874 310.981 108.851L323.618 106.922C323.842 106.888 324.034 106.743 324.13 106.537L327.214 99.8628C327.362 99.5446 327.241 99.1669 326.937 98.9924L315.609 92.4932C315.257 92.2911 314.807 92.4428 314.649 92.817L311.752 99.6857C311.661 99.9022 311.464 100.056 311.231 100.091L300.359 101.753C299.721 101.851 299.569 102.701 300.134 103.014L310.552 108.775Z" fill="#043375" stroke="#0E59C1" stroke-miterlimit="10"/>
<path d="M280.494 126.417C280.626 126.489 280.776 126.516 280.924 126.493L293.561 124.564C293.785 124.53 293.977 124.385 294.072 124.18L297.157 117.505C297.304 117.187 297.184 116.809 296.88 116.635L285.552 110.135C285.199 109.933 284.75 110.085 284.592 110.459L281.695 117.328C281.604 117.544 281.406 117.698 281.174 117.733L270.302 119.395C269.664 119.493 269.512 120.343 270.076 120.655L280.494 126.417Z" fill="#043375" stroke="#0E59C1" stroke-miterlimit="10"/>
<path d="M249.784 144.713C249.915 144.785 250.066 144.812 250.214 144.789L262.85 142.86C263.075 142.826 263.267 142.681 263.362 142.475L266.447 135.8C266.594 135.483 266.474 135.105 266.169 134.93L254.841 128.431C254.489 128.229 254.04 128.381 253.881 128.755L250.985 135.623C250.894 135.84 250.696 135.994 250.463 136.029L239.592 137.691C238.953 137.789 238.802 138.639 239.366 138.951L249.784 144.713Z" fill="#043375" stroke="#0E59C1" stroke-miterlimit="10"/>
<path d="M391.211 144.551L339.219 114.475" stroke="white" stroke-miterlimit="10"/>
<path d="M355.862 135.088L329.773 120.002" stroke="white" stroke-miterlimit="10"/>
<path d="M360.633 162.354L308.641 132.276" stroke="white" stroke-miterlimit="10"/>
<path d="M351.281 167.788L325.098 152.703" stroke="white" stroke-miterlimit="10"/>
<path d="M330.149 180.062L278.157 149.985" stroke="white" stroke-miterlimit="10"/>
<path d="M255.434 217.355C248.047 213.045 247.954 206.111 255.341 201.801C262.728 197.491 274.698 197.491 282.085 201.801C289.472 206.111 289.566 213.045 282.178 217.355C274.884 221.571 262.915 221.571 255.434 217.355Z" fill="#043375" stroke="#0E59C1" stroke-miterlimit="10"/>
<path d="M134.149 260.067C137.359 258.208 137.359 255.165 134.149 253.306C130.94 251.447 125.647 251.447 122.438 253.306C119.229 255.165 119.229 258.208 122.438 260.067C125.647 261.926 130.94 261.926 134.149 260.067Z" fill="#043375" stroke="#B0B0B0" stroke-width="0.7" stroke-miterlimit="10" stroke-dasharray="1.82 2.73"/>
<path d="M496.571 172.666C499.454 170.997 499.454 168.265 496.571 166.596C493.688 164.926 488.933 164.926 486.05 166.596C483.166 168.265 483.166 170.997 486.05 172.666C488.933 174.336 493.688 174.336 496.571 172.666Z" fill="#043375" stroke="#B0B0B0" stroke-width="0.7" stroke-miterlimit="10" stroke-dasharray="1.82 2.73"/>
</svg>
